<svg version="1.1" viewBox="0.0 0.0 404.0 371.0" fill="none" stroke="none" stroke-linecap="square" stroke-miterlimit="10" width="404" height="371" xmlns:xlink="http://www.w3.org/1999/xlink" xmlns="http://www.w3.org/2000/svg"><path fill="#ffffff" fill-opacity="0.0" d="M0 0L404.0 0L404.0 371.0L0 371.0L0 0Z" fill-rule="nonzero"/><path fill="#9fc5e8" d="M93.02477 158.0918C108.36453 110.880875 152.3595 78.916664 202.0 78.916664L202.0 193.5Z" fill-rule="nonzero"/><path fill="#ea9999" d="M134.64961 286.19986C94.48959 257.0219 77.68501 205.30273 93.02477 158.0918L202.0 193.5Z" fill-rule="nonzero"/><path fill="#999999" d="M202.0 78.916664C251.6405 78.916664 295.63547 110.880875 310.97522 158.0918C326.31497 205.30273 309.5104 257.0219 269.3504 286.19986C229.19038 315.37784 174.80962 315.37784 134.64961 286.19986L202.0 193.5Z" fill-rule="nonzero"/><path fill="#000000" d="M233.38188 218.37311L232.1475 218.37311L232.1475 210.52936Q231.71 210.95123 230.97563 211.38873Q230.25688 211.81061 229.69438 212.01373L229.69438 210.82623Q230.72563 210.34186 231.49126 209.65436Q232.2725 208.96686 232.585 208.31061L233.38188 208.31061L233.38188 218.37311ZM243.21 217.18561L243.21 218.37311L236.585 218.37311Q236.56938 217.93561 236.72563 217.51373Q236.99126 216.84186 237.53813 216.18561Q238.10063 215.52936 239.1475 214.66998Q240.78813 213.32623 241.35063 212.54498Q241.92876 211.76373 241.92876 211.06061Q241.92876 210.32623 241.3975 209.82623Q240.88188 209.32623 240.05376 209.32623Q239.16313 209.32623 238.61626 209.85748Q238.085 210.38873 238.085 211.34186L236.81938 211.20123Q236.94438 209.79498 237.78813 209.06061Q238.6475 208.31061 240.06938 208.31061Q241.5225 208.31061 242.35063 209.10748Q243.19438 209.90436 243.19438 211.09186Q243.19438 211.70123 242.94438 212.27936Q242.71 212.85748 242.13188 213.49811Q241.56938 214.13873 240.24126 215.26373Q239.13188 216.18561 238.81938 216.52936Q238.50688 216.85748 238.30376 217.18561L243.21 217.18561ZM251.44438 221.32623Q250.41313 220.02936 249.71 218.31061Q249.00688 216.59186 249.00688 214.74811Q249.00688 213.12311 249.53813 211.62311Q250.1475 209.88873 251.44438 208.18561L252.31938 208.18561Q251.49126 209.60748 251.22563 210.21686Q250.80376 211.15436 250.56938 212.18561Q250.2725 213.45123 250.2725 214.74811Q250.2725 218.04498 252.31938 221.32623L251.44438 221.32623ZM260.1319 210.81061L258.91315 210.90436Q258.74127 210.16998 258.4444 209.84186Q257.9444 209.32623 257.21002 209.32623Q256.61627 209.32623 256.17877 209.65436Q255.60063 210.07623 255.25688 210.88873Q254.92876 211.70123 254.91313 213.20123Q255.35063 212.52936 255.99126 212.20123Q256.64752 211.87311 257.35065 211.87311Q258.58502 211.87311 259.4444 212.77936Q260.30377 213.68561 260.30377 215.12311Q260.30377 216.06061 259.89752 216.87311Q259.49127 217.68561 258.77252 218.12311Q258.0694 218.54498 257.16315 218.54498Q255.63188 218.54498 254.66313 217.41998Q253.69438 216.27936 253.69438 213.68561Q253.69438 210.77936 254.75688 209.45123Q255.69438 208.31061 257.28815 208.31061Q258.47565 208.31061 259.22565 208.98248Q259.97565 209.63873 260.1319 210.81061ZM255.10063 215.12311Q255.10063 215.76373 255.36626 216.34186Q255.6475 216.91998 256.1319 217.23248Q256.61627 217.52936 257.14752 217.52936Q257.92877 217.52936 258.49127 216.90436Q259.05377 216.27936 259.05377 215.20123Q259.05377 214.15436 258.49127 213.56061Q257.9444 212.95123 257.10065 212.95123Q256.27252 212.95123 255.67876 213.56061Q255.10063 214.15436 255.10063 215.12311ZM261.74127 213.43561Q261.74127 211.65436 262.10065 210.57623Q262.47565 209.48248 263.1944 208.90436Q263.91315 208.31061 265.0069 208.31061Q265.8194 208.31061 266.42877 208.63873Q267.03815 208.96686 267.42877 209.57623Q267.83502 210.18561 268.05377 211.06061Q268.27252 211.93561 268.27252 213.43561Q268.27252 215.20123 267.91315 216.27936Q267.55377 217.35748 266.83502 217.95123Q266.11627 218.54498 265.0069 218.54498Q263.5694 218.54498 262.74127 217.49811Q261.74127 216.24811 261.74127 213.43561ZM263.0069 213.43561Q263.0069 215.90436 263.58502 216.71686Q264.16315 217.52936 265.0069 217.52936Q265.86627 217.52936 266.4444 216.71686Q267.02252 215.88873 267.02252 213.43561Q267.02252 210.95123 266.4444 210.13873Q265.86627 209.32623 264.99127 209.32623Q264.14752 209.32623 263.64752 210.04498Q263.0069 210.96686 263.0069 213.43561ZM270.42877 218.37311L270.42877 216.96686L271.83502 216.96686L271.83502 218.37311L270.42877 218.37311ZM273.74127 213.43561Q273.74127 211.65436 274.10065 210.57623Q274.47565 209.48248 275.1944 208.90436Q275.91315 208.31061 277.0069 208.31061Q277.8194 208.31061 278.42877 208.63873Q279.03815 208.96686 279.42877 209.57623Q279.83502 210.18561 280.05377 211.06061Q280.27252 211.93561 280.27252 213.43561Q280.27252 215.20123 279.91315 216.27936Q279.55377 217.35748 278.83502 217.95123Q278.11627 218.54498 277.0069 218.54498Q275.5694 218.54498 274.74127 217.49811Q273.74127 216.24811 273.74127 213.43561ZM275.0069 213.43561Q275.0069 215.90436 275.58502 216.71686Q276.16315 217.52936 277.0069 217.52936Q277.86627 217.52936 278.4444 216.71686Q279.02252 215.88873 279.02252 213.43561Q279.02252 210.95123 278.4444 210.13873Q277.86627 209.32623 276.99127 209.32623Q276.14752 209.32623 275.64752 210.04498Q275.0069 210.96686 275.0069 213.43561ZM281.97565 210.76373Q281.97565 209.68561 282.5069 208.93561Q283.05377 208.18561 284.08502 208.18561Q285.02252 208.18561 285.6319 208.85748Q286.2569 209.52936 286.2569 210.82623Q286.2569 212.10748 285.6319 212.79498Q285.0069 213.48248 284.10065 213.48248Q283.1944 213.48248 282.58502 212.81061Q281.97565 212.12311 281.97565 210.76373ZM284.11627 209.02936Q283.66315 209.02936 283.35065 209.43561Q283.05377 209.82623 283.05377 210.87311Q283.05377 211.84186 283.35065 212.23248Q283.66315 212.62311 284.11627 212.62311Q284.58502 212.62311 284.8819 212.23248Q285.1944 211.84186 285.1944 210.77936Q285.1944 209.81061 284.8819 209.41998Q284.5694 209.02936 284.11627 209.02936ZM284.11627 218.74811L289.60065 208.18561L290.60065 208.18561L285.14752 218.74811L284.11627 218.74811ZM288.46002 216.01373Q288.46002 214.93561 288.99127 214.20123Q289.53815 213.45123 290.5694 213.45123Q291.5069 213.45123 292.1319 214.12311Q292.7569 214.79498 292.7569 216.09186Q292.7569 217.37311 292.1319 218.06061Q291.5069 218.74811 290.5694 218.74811Q289.66315 218.74811 289.05377 218.07623Q288.46002 217.38873 288.46002 216.01373ZM290.60065 214.29498Q290.1319 214.29498 289.83502 214.70123Q289.53815 215.09186 289.53815 216.13873Q289.53815 217.10748 289.83502 217.49811Q290.14752 217.88873 290.60065 217.88873Q291.0694 217.88873 291.36627 217.49811Q291.67877 217.10748 291.67877 216.04498Q291.67877 215.07623 291.36627 214.68561Q291.0694 214.29498 290.60065 214.29498ZM294.89752 221.32623L294.0069 221.32623Q296.05377 218.04498 296.05377 214.74811Q296.05377 213.46686 295.7569 212.20123Q295.52252 211.16998 295.11627 210.23248Q294.85065 209.62311 294.0069 208.18561L294.89752 208.18561Q296.17877 209.88873 296.78815 211.62311Q297.3194 213.12311 297.3194 214.74811Q297.3194 216.59186 296.60065 218.31061Q295.89752 220.02936 294.89752 221.32623Z" fill-rule="nonzero"/><path fill="#000000" d="M110.79905 219.53276L110.79905 217.12651L106.439674 217.12651L106.439674 216.00151L111.0178 209.51714L112.0178 209.51714L112.0178 216.00151L113.377174 216.00151L113.377174 217.12651L112.0178 217.12651L112.0178 219.53276L110.79905 219.53276ZM110.79905 216.00151L110.79905 211.48589L107.658424 216.00151L110.79905 216.00151ZM121.54905 222.48589Q120.5178 221.18901 119.814674 219.47026Q119.11155 217.75151 119.11155 215.90776Q119.11155 214.28276 119.6428 212.78276Q120.252174 211.04839 121.54905 209.34526L122.42405 209.34526Q121.595924 210.76714 121.3303 211.37651Q120.908424 212.31401 120.67405 213.34526Q120.377174 214.61089 120.377174 215.90776Q120.377174 219.20464 122.42405 222.48589L121.54905 222.48589ZM130.31467 218.34526L130.31467 219.53276L123.689674 219.53276Q123.67405 219.09526 123.8303 218.67339Q124.095924 218.00151 124.6428 217.34526Q125.2053 216.68901 126.252174 215.82964Q127.8928 214.48589 128.45529 213.70464Q129.03342 212.92339 129.03342 212.22026Q129.03342 211.48589 128.50217 210.98589Q127.98655 210.48589 127.158424 210.48589Q126.2678 210.48589 125.720924 211.01714Q125.189674 211.54839 125.189674 212.50151L123.92405 212.36089Q124.04905 210.95464 124.8928 210.22026Q125.752174 209.47026 127.17405 209.47026Q128.62717 209.47026 129.45529 210.26714Q130.29904 211.06401 130.29904 212.25151Q130.29904 212.86089 130.04904 213.43901Q129.81467 214.01714 129.23654 214.65776Q128.67404 215.29839 127.345924 216.42339Q126.23655 217.34526 125.92405 217.68901Q125.61155 218.01714 125.408424 218.34526L130.31467 218.34526ZM131.84592 214.59526Q131.84592 212.81401 132.20529 211.73589Q132.58029 210.64214 133.29904 210.06401Q134.01779 209.47026 135.11154 209.47026Q135.92404 209.47026 136.53342 209.79839Q137.14279 210.12651 137.53342 210.73589Q137.93967 211.34526 138.15842 212.22026Q138.37717 213.09526 138.37717 214.59526Q138.37717 216.36089 138.01779 217.43901Q137.65842 218.51714 136.93967 219.11089Q136.22092 219.70464 135.11154 219.70464Q133.67404 219.70464 132.84592 218.65776Q131.84592 217.40776 131.84592 214.59526ZM133.11154 214.59526Q133.11154 217.06401 133.68967 217.87651Q134.26779 218.68901 135.11154 218.68901Q135.97092 218.68901 136.54904 217.87651Q137.12717 217.04839 137.12717 214.59526Q137.12717 212.11089 136.54904 211.29839Q135.97092 210.48589 135.09592 210.48589Q134.25217 210.48589 133.75217 211.20464Q133.11154 212.12651 133.11154 214.59526ZM140.53342 219.53276L140.53342 218.12651L141.93967 218.12651L141.93967 219.53276L140.53342 219.53276ZM143.84592 214.59526Q143.84592 212.81401 144.20529 211.73589Q144.58029 210.64214 145.29904 210.06401Q146.01779 209.47026 147.11154 209.47026Q147.92404 209.47026 148.53342 209.79839Q149.14279 210.12651 149.53342 210.73589Q149.93967 211.34526 150.15842 212.22026Q150.37717 213.09526 150.37717 214.59526Q150.37717 216.36089 150.01779 217.43901Q149.65842 218.51714 148.93967 219.11089Q148.22092 219.70464 147.11154 219.70464Q145.67404 219.70464 144.84592 218.65776Q143.84592 217.40776 143.84592 214.59526ZM145.11154 214.59526Q145.11154 217.06401 145.68967 217.87651Q146.26779 218.68901 147.11154 218.68901Q147.97092 218.68901 148.54904 217.87651Q149.12717 217.04839 149.12717 214.59526Q149.12717 212.11089 148.54904 211.29839Q147.97092 210.48589 147.09592 210.48589Q146.25217 210.48589 145.75217 211.20464Q145.11154 212.12651 145.11154 214.59526ZM152.08029 211.92339Q152.08029 210.84526 152.61154 210.09526Q153.15842 209.34526 154.18967 209.34526Q155.12717 209.34526 155.73654 210.01714Q156.36154 210.68901 156.36154 211.98589Q156.36154 213.26714 155.73654 213.95464Q155.11154 214.64214 154.20529 214.64214Q153.29904 214.64214 152.68967 213.97026Q152.08029 213.28276 152.08029 211.92339ZM154.22092 210.18901Q153.76779 210.18901 153.45529 210.59526Q153.15842 210.98589 153.15842 212.03276Q153.15842 213.00151 153.45529 213.39214Q153.76779 213.78276 154.22092 213.78276Q154.68967 213.78276 154.98654 213.39214Q155.29904 213.00151 155.29904 211.93901Q155.29904 210.97026 154.98654 210.57964Q154.67404 210.18901 154.22092 210.18901ZM154.22092 219.90776L159.70529 209.34526L160.70529 209.34526L155.25217 219.90776L154.22092 219.90776ZM158.56467 217.17339Q158.56467 216.09526 159.09592 215.36089Q159.64279 214.61089 160.67404 214.61089Q161.61154 214.61089 162.23654 215.28276Q162.86154 215.95464 162.86154 217.25151Q162.86154 218.53276 162.23654 219.22026Q161.61154 219.90776 160.67404 219.90776Q159.76779 219.90776 159.15842 219.23589Q158.56467 218.54839 158.56467 217.17339ZM160.70529 215.45464Q160.23654 215.45464 159.93967 215.86089Q159.64279 216.25151 159.64279 217.29839Q159.64279 218.26714 159.93967 218.65776Q160.25217 219.04839 160.70529 219.04839Q161.17404 219.04839 161.47092 218.65776Q161.78342 218.26714 161.78342 217.20464Q161.78342 216.23589 161.47092 215.84526Q161.17404 215.45464 160.70529 215.45464ZM165.00217 222.48589L164.11154 222.48589Q166.15842 219.20464 166.15842 215.90776Q166.15842 214.62651 165.86154 213.36089Q165.62717 212.32964 165.22092 211.39214Q164.95529 210.78276 164.11154 209.34526L165.00217 209.34526Q166.28342 211.04839 166.89279 212.78276Q167.42404 214.28276 167.42404 215.90776Q167.42404 217.75151 166.70529 219.47026Q166.00217 221.18901 165.00217 222.48589Z" fill-rule="nonzero"/><path fill="#000000" d="M133.46306 140.5981L133.46306 138.19185L129.10368 138.19185L129.10368 137.06685L133.68181 130.58247L134.68181 130.58247L134.68181 137.06685L136.04118 137.06685L136.04118 138.19185L134.68181 138.19185L134.68181 140.5981L133.46306 140.5981ZM133.46306 137.06685L133.46306 132.55122L130.32243 137.06685L133.46306 137.06685ZM144.21306 143.55122Q143.18181 142.25435 142.47868 140.5356Q141.77556 138.81685 141.77556 136.9731Q141.77556 135.3481 142.30681 133.8481Q142.91618 132.11372 144.21306 130.4106L145.08806 130.4106Q144.25993 131.83247 143.99431 132.44185Q143.57243 133.37935 143.33806 134.4106Q143.04118 135.67622 143.04118 136.9731Q143.04118 140.26997 145.08806 143.55122L144.21306 143.55122ZM152.97868 139.4106L152.97868 140.5981L146.35368 140.5981Q146.33806 140.1606 146.49431 139.73872Q146.75993 139.06685 147.30681 138.4106Q147.86931 137.75435 148.91618 136.89497Q150.55681 135.55122 151.11931 134.76997Q151.69743 133.98872 151.69743 133.2856Q151.69743 132.55122 151.16618 132.05122Q150.65056 131.55122 149.82243 131.55122Q148.93181 131.55122 148.38493 132.08247Q147.85368 132.61372 147.85368 133.56685L146.58806 133.42622Q146.71306 132.01997 147.55681 131.2856Q148.41618 130.5356 149.83806 130.5356Q151.29118 130.5356 152.11931 131.33247Q152.96306 132.12935 152.96306 133.31685Q152.96306 133.92622 152.71306 134.50435Q152.47868 135.08247 151.90056 135.7231Q151.33806 136.36372 150.00993 137.48872Q148.90056 138.4106 148.58806 138.75435Q148.27556 139.08247 148.07243 139.4106L152.97868 139.4106ZM154.50993 135.6606Q154.50993 133.87935 154.86931 132.80122Q155.24431 131.70747 155.96306 131.12935Q156.68181 130.5356 157.77556 130.5356Q158.58806 130.5356 159.19743 130.86372Q159.80681 131.19185 160.19743 131.80122Q160.60368 132.4106 160.82243 133.2856Q161.04118 134.1606 161.04118 135.6606Q161.04118 137.42622 160.68181 138.50435Q160.32243 139.58247 159.60368 140.17622Q158.88493 140.76997 157.77556 140.76997Q156.33806 140.76997 155.50993 139.7231Q154.50993 138.4731 154.50993 135.6606ZM155.77556 135.6606Q155.77556 138.12935 156.35368 138.94185Q156.93181 139.75435 157.77556 139.75435Q158.63493 139.75435 159.21306 138.94185Q159.79118 138.11372 159.79118 135.6606Q159.79118 133.17622 159.21306 132.36372Q158.63493 131.55122 157.75993 131.55122Q156.91618 131.55122 156.41618 132.26997Q155.77556 133.19185 155.77556 135.6606ZM163.19743 140.5981L163.19743 139.19185L164.60368 139.19185L164.60368 140.5981L163.19743 140.5981ZM166.50993 135.6606Q166.50993 133.87935 166.86931 132.80122Q167.24431 131.70747 167.96306 131.12935Q168.68181 130.5356 169.77556 130.5356Q170.58806 130.5356 171.19743 130.86372Q171.80681 131.19185 172.19743 131.80122Q172.60368 132.4106 172.82243 133.2856Q173.04118 134.1606 173.04118 135.6606Q173.04118 137.42622 172.68181 138.50435Q172.32243 139.58247 171.60368 140.17622Q170.88493 140.76997 169.77556 140.76997Q168.33806 140.76997 167.50993 139.7231Q166.50993 138.4731 166.50993 135.6606ZM167.77556 135.6606Q167.77556 138.12935 168.35368 138.94185Q168.93181 139.75435 169.77556 139.75435Q170.63493 139.75435 171.21306 138.94185Q171.79118 138.11372 171.79118 135.6606Q171.79118 133.17622 171.21306 132.36372Q170.63493 131.55122 169.75993 131.55122Q168.91618 131.55122 168.41618 132.26997Q167.77556 133.19185 167.77556 135.6606ZM174.74431 132.98872Q174.74431 131.9106 175.27556 131.1606Q175.82243 130.4106 176.85368 130.4106Q177.79118 130.4106 178.40056 131.08247Q179.02556 131.75435 179.02556 133.05122Q179.02556 134.33247 178.40056 135.01997Q177.77556 135.70747 176.86931 135.70747Q175.96306 135.70747 175.35368 135.0356Q174.74431 134.3481 174.74431 132.98872ZM176.88493 131.25435Q176.43181 131.25435 176.11931 131.6606Q175.82243 132.05122 175.82243 133.0981Q175.82243 134.06685 176.11931 134.45747Q176.43181 134.8481 176.88493 134.8481Q177.35368 134.8481 177.65056 134.45747Q177.96306 134.06685 177.96306 133.00435Q177.96306 132.0356 177.65056 131.64497Q177.33806 131.25435 176.88493 131.25435ZM176.88493 140.9731L182.36931 130.4106L183.36931 130.4106L177.91618 140.9731L176.88493 140.9731ZM181.22868 138.23872Q181.22868 137.1606 181.75993 136.42622Q182.30681 135.67622 183.33806 135.67622Q184.27556 135.67622 184.90056 136.3481Q185.52556 137.01997 185.52556 138.31685Q185.52556 139.5981 184.90056 140.2856Q184.27556 140.9731 183.33806 140.9731Q182.43181 140.9731 181.82243 140.30122Q181.22868 139.61372 181.22868 138.23872ZM183.36931 136.51997Q182.90056 136.51997 182.60368 136.92622Q182.30681 137.31685 182.30681 138.36372Q182.30681 139.33247 182.60368 139.7231Q182.91618 140.11372 183.36931 140.11372Q183.83806 140.11372 184.13493 139.7231Q184.44743 139.33247 184.44743 138.26997Q184.44743 137.30122 184.13493 136.9106Q183.83806 136.51997 183.36931 136.51997ZM187.66618 143.55122L186.77556 143.55122Q188.82243 140.26997 188.82243 136.9731Q188.82243 135.69185 188.52556 134.42622Q188.29118 133.39497 187.88493 132.45747Q187.61931 131.8481 186.77556 130.4106L187.66618 130.4106Q188.94743 132.11372 189.55681 133.8481Q190.08806 135.3481 190.08806 136.9731Q190.08806 138.81685 189.36931 140.5356Q188.66618 142.25435 187.66618 143.55122Z" fill-rule="nonzero"/><path fill="#999999" d="M41.5 327.45C41.5 330.7637 38.81371 333.45 35.5 333.45C32.18629 333.45 29.5 330.7637 29.5 327.45C29.5 324.1363 32.18629 321.45 35.5 321.45C38.81371 321.45 41.5 324.1363 41.5 327.45Z" fill-rule="nonzero"/><path fill="#1a1a1a" d="M52.828125 330.71564Q51.90625 331.65314 50.65625 332.1375Q49.578125 332.325 50.34375 331.5594Q51.859375 330.6375 52.390625 329.7625Q53.0625 328.65314 53.0625 327.16876L53.0625 321.48126L54.078125 322.09064L57.5 322.09064L57.859375 321.6219L58.71875 322.23126Q59.40625 322.8094 58.625 322.96564L58.625 330.77814Q58.625 331.40314 58.21875 331.79376Q57.875 332.15314 57.34375 332.15314Q56.90625 332.15314 56.90625 331.575Q56.921875 331.575 56.875 331.59064L56.03125 331.3875Q55.203125 330.8875 56.09375 330.71564L57.34375 330.71564Q57.515625 330.71564 57.515625 330.54376L57.515625 328.16876L54.140625 328.16876Q53.96875 329.575 52.828125 330.71564ZM54.171875 325.54376L54.171875 327.3875L57.515625 327.3875L57.515625 325.54376L54.171875 325.54376ZM54.171875 322.8719L54.171875 324.7625L57.515625 324.7625L57.515625 322.8719L54.171875 322.8719Z" fill-rule="nonzero"/><path fill="#1a1a1a" d="M67.90625 322.21564L67.90625 331.45L64.984375 331.45L64.984375 325.98126Q64.78125 326.1375 64.21875 326.41876Q63.65625 326.7 62.484375 327.0594L62.484375 324.575Q63.828125 324.15314 64.453125 323.6375Q65.09375 323.1219 65.515625 322.21564L67.90625 322.21564Z" fill-rule="nonzero"/><path fill="#1a1a1a" d="M71.828125 331.2625L71.828125 331.91876Q70.71875 332.95 70.71875 331.85626L70.71875 321.6375L71.75 322.325L79.5625 322.325L79.96875 321.8094L80.90625 322.46564Q81.78125 323.1219 80.6875 323.2625L80.6875 331.73126Q79.578125 332.7625 79.578125 331.66876L79.578125 331.2625L71.828125 331.2625ZM71.828125 323.10626L71.828125 330.48126L79.578125 330.48126L79.578125 323.10626L71.828125 323.10626ZM74.265625 325.54376L74.265625 327.7625L76.859375 327.7625L76.859375 325.54376L74.265625 325.54376ZM74.171875 324.7625L76.84375 324.7625L77.25 324.2469L78.1875 324.90314Q79.0625 325.5594 77.96875 325.7L77.96875 328.8719Q76.859375 329.90314 76.859375 328.8094L76.859375 328.54376L74.265625 328.54376L74.265625 329.2469Q73.15625 330.27814 73.15625 329.1844L73.15625 324.15314L74.171875 324.7625ZM82.046875 329.575Q83.4375 327.52814 83.90625 325.6844L82.109375 325.6844L82.109375 324.90314L83.984375 324.90314L83.984375 323.27814Q83.203125 323.48126 82.265625 323.6219Q81.4375 323.46564 82.109375 322.95Q84.46875 322.29376 86.046875 321.325L86.84375 322.0125Q87.640625 322.8094 86.140625 322.6375Q85.46875 322.85626 85.09375 322.95L85.09375 324.90314L85.34375 324.90314L86.03125 324.21564L86.96875 324.90314Q87.59375 325.4344 86.859375 325.6844L85.09375 325.6844L85.09375 326.7469Q86.734375 327.2625 86.734375 328.0125Q86.734375 328.59064 86.25 328.59064Q85.859375 328.59064 85.65625 328.1844Q85.328125 327.6844 85.09375 327.5594L85.09375 332.0594Q83.984375 333.09064 83.984375 331.9969L83.984375 328.3875Q83.78125 328.8094 82.59375 329.9969Q81.703125 330.45 82.046875 329.575ZM89.96875 330.90314L91.578125 330.90314L92.359375 330.1219L93.4375 330.90314Q94.0625 331.4344 93.328125 331.6844L85.53125 331.6844L85.53125 330.90314L88.859375 330.90314L88.859375 329.52814L86.421875 329.52814L86.421875 328.7469L88.859375 328.7469L88.859375 327.5125L86.28125 327.5125L86.28125 326.73126L91.296875 326.73126L91.984375 326.04376L92.921875 326.73126Q93.546875 327.2625 92.8125 327.5125L89.96875 327.5125L89.96875 328.7469L90.875 328.7469L91.5625 328.0594L92.5 328.7469Q93.125 329.27814 92.390625 329.52814L89.96875 329.52814L89.96875 330.90314ZM90.90625 322.3719L91.265625 321.90314L92.125 322.5125Q92.8125 323.09064 92.03125 323.2469L92.03125 325.77814Q90.921875 326.8094 90.921875 325.71564L90.921875 325.59064L88.234375 325.59064L88.234375 326.0594Q87.125 327.09064 87.125 325.9969L87.125 321.825L88.140625 322.3719L90.90625 322.3719ZM90.921875 323.15314L88.234375 323.15314L88.234375 324.8094L90.921875 324.8094L90.921875 323.15314ZM101.328125 330.27814Q102.765625 330.9969 106.15625 331.27814Q104.59375 331.8719 104.171875 332.40314Q101.84375 331.9969 100.390625 330.90314Q98.90625 331.85626 95.484375 332.4344Q94.46875 332.29376 95.34375 331.71564Q98.4375 331.0125 99.625 330.23126Q99.078125 329.71564 98.53125 328.73126L96.5 328.73126L96.5 327.95L102.046875 327.95L102.5 327.54376L103.265625 328.1375Q104.515625 328.96564 102.890625 328.96564Q101.921875 329.90314 101.328125 330.27814ZM96.53125 323.48126L96.53125 326.1375Q96.53125 329.3094 94.625 331.9969Q93.75 332.575 94.03125 331.575Q95.421875 328.9344 95.421875 326.41876L95.421875 322.15314L96.4375 322.7L99.5 322.7L99.5 321.0594L100.640625 321.2625Q101.609375 321.8719 100.609375 322.04376L100.609375 322.7L103.4375 322.7L104.125 322.0125L105.0625 322.7Q105.6875 323.23126 104.953125 323.48126L96.53125 323.48126ZM102.203125 325.4969L102.203125 327.3719Q101.09375 328.40314 101.09375 327.3094L101.09375 327.09064L99.4375 327.09064L99.4375 327.5125Q98.328125 328.54376 98.328125 327.45L98.328125 325.4969L96.546875 325.4969L96.546875 324.71564L98.328125 324.71564L98.328125 323.2625L99.46875 323.46564Q100.4375 324.075 99.4375 324.2469L99.4375 324.71564L101.09375 324.71564L101.09375 323.3094L102.234375 323.5125Q103.203125 324.1219 102.203125 324.29376L102.203125 324.71564L103.25 324.71564L103.9375 324.02814L104.875 324.71564Q105.5 325.2469 104.765625 325.4969L102.203125 325.4969ZM100.40625 329.71564Q101.3125 328.9969 101.5625 328.73126L99.453125 328.73126Q99.796875 329.2469 100.40625 329.71564ZM101.09375 325.4969L99.4375 325.4969L99.4375 326.3094L101.09375 326.3094L101.09375 325.4969Z" fill-rule="nonzero"/><path fill="#1a1a1a" d="M115.765625 323.46564Q115.765625 323.84064 115.765625 323.95Q116.546875 323.8719 117.28125 323.6844Q117.65625 323.60626 117.84375 323.46564Q118.234375 323.15314 118.5625 323.40314Q118.859375 323.60626 118.96875 323.71564Q119.515625 324.2625 118.71875 324.46564Q117.34375 324.79376 115.765625 324.91876Q115.765625 325.71564 115.765625 326.46564Q116.421875 326.40314 116.921875 326.3094Q117.53125 326.23126 117.671875 326.1219Q118.0625 325.8875 118.375 326.1219Q118.609375 326.2469 118.75 326.35626Q119.265625 326.7469 118.640625 327.0594Q118.453125 327.1844 117.796875 327.23126Q116.5625 327.3719 115.765625 327.40314Q115.765625 328.29376 115.765625 329.16876Q117.421875 329.5125 118.859375 330.16876Q119.421875 330.4344 119.421875 331.0594Q119.421875 331.4344 119.046875 331.52814Q118.8125 331.6219 118.421875 331.3719Q116.921875 330.45 115.78125 330.16876Q115.8125 330.73126 115.375 331.23126Q114.78125 331.8719 113.40625 331.8719Q112.171875 331.8719 111.546875 331.23126Q111.1875 330.8875 111.1875 330.40314Q111.1875 329.85626 111.65625 329.4969Q112.34375 328.98126 113.875 328.98126Q114.203125 328.98126 114.75 329.0125Q114.75 328.2469 114.75 327.48126Q114.3125 327.5125 113.546875 327.5125Q112.671875 327.5125 112.234375 327.2469Q111.609375 326.84064 111.65625 325.65314Q111.953125 325.0594 112.390625 325.6375Q112.390625 326.2625 112.546875 326.4344Q112.765625 326.6375 113.546875 326.6375Q114.328125 326.6375 114.75 326.575Q114.75 325.7625 114.75 325.0125Q114.125 325.075 112.9375 325.075Q112.0625 325.075 111.515625 324.91876Q110.734375 324.71564 110.203125 324.075Q109.703125 323.09064 110.6875 323.59064Q111.140625 323.9969 111.59375 324.1219Q111.890625 324.2 113.078125 324.2Q114.0 324.2 114.75 324.09064Q114.75 323.9344 114.75 323.5125Q114.75 322.79376 114.65625 322.66876Q114.5 322.45 114.078125 322.45Q112.890625 322.6219 113.890625 321.79376Q114.203125 321.66876 114.625 321.66876Q115.15625 321.66876 115.875 322.075Q116.515625 322.4344 115.90625 322.95Q115.765625 323.075 115.765625 323.46564ZM114.71875 329.91876Q113.90625 329.8094 113.59375 329.8094Q112.765625 329.8094 112.34375 330.0125Q112.015625 330.1844 112.015625 330.45Q112.015625 330.66876 112.34375 330.84064Q112.765625 331.04376 113.3125 331.04376Q114.0625 331.04376 114.453125 330.6844Q114.75 330.4344 114.71875 329.91876ZM125.890625 324.5594Q124.859375 324.79376 123.65625 324.9969Q122.703125 328.23126 121.71875 331.5125Q121.53125 332.09064 121.015625 331.79376Q120.796875 331.6375 120.71875 331.3094Q120.5625 330.6844 120.765625 330.40314Q121.03125 329.96564 121.25 329.3719Q122.046875 327.1375 122.640625 325.16876Q121.890625 325.2625 121.375 325.34064Q120.96875 325.54376 120.65625 325.23126Q120.5 325.09064 120.296875 324.84064Q120.109375 324.575 120.109375 324.23126Q120.28125 323.3875 120.703125 324.02814Q120.953125 324.3875 121.4375 324.3875Q122.265625 324.3875 122.890625 324.27814Q123.25 323.35626 123.296875 322.79376Q123.296875 322.6844 123.234375 322.6219Q123.0625 322.48126 122.828125 322.45Q121.6875 322.45 122.703125 321.77814Q123.0 321.71564 123.3125 321.71564Q123.765625 321.71564 124.484375 322.23126Q125.140625 322.6844 124.46875 323.075Q124.3125 323.16876 123.984375 324.075Q124.4375 323.98126 125.171875 323.54376Q125.359375 323.35626 125.65625 323.35626Q125.953125 323.35626 126.28125 323.73126Q126.734375 324.3875 125.890625 324.5594ZM124.34375 325.85626Q125.375 325.2469 126.59375 324.9969Q127.796875 324.7625 128.6875 324.85626Q129.375 324.9344 129.375 325.48126Q129.375 326.0125 128.75 326.0125Q127.203125 326.0125 125.984375 327.04376Q124.875 327.71564 125.546875 326.60626Q125.96875 326.075 126.953125 325.59064Q127.015625 325.71564 126.96875 325.8719Q126.171875 325.8719 124.71875 326.41876Q123.796875 326.77814 124.34375 325.85626ZM124.34375 328.6219Q125.015625 327.27814 125.015625 328.73126Q124.96875 329.10626 124.96875 329.23126Q124.96875 329.6844 125.3125 330.04376Q125.765625 330.48126 126.78125 330.48126Q127.484375 330.48126 128.1875 330.48126Q128.875 330.48126 129.04688 330.3719Q129.51562 330.10626 129.82812 330.34064Q130.21875 330.60626 130.28125 330.7625Q130.65625 331.4969 129.6875 331.4969Q128.51562 331.4969 127.34375 331.4969Q125.453125 331.4969 124.78125 330.8094Q124.234375 330.27814 124.234375 329.41876Q124.234375 328.95 124.34375 328.6219ZM141.20312 331.1375Q139.92188 330.35626 139.51562 330.21564Q139.40625 330.79376 138.8125 331.16876Q138.28125 331.54376 137.40625 331.54376Q136.26562 331.54376 135.73438 330.9969Q135.32812 330.60626 135.32812 330.075Q135.32812 329.6219 135.8125 329.2625Q136.34375 328.8875 137.40625 328.8875Q138.23438 328.8875 138.5625 328.96564Q138.5625 326.66876 138.48438 325.52814Q137.09375 325.73126 135.90625 325.73126Q135.39062 325.73126 135.03125 325.4344Q134.42188 324.8719 134.29688 324.41876Q134.125 323.52814 134.875 324.09064Q135.34375 324.8094 135.95312 324.8094Q136.92188 324.8094 138.40625 324.60626Q138.375 323.66876 138.32812 323.2625Q138.29688 322.95 137.6875 322.91876Q136.20312 322.91876 137.53125 322.2469Q137.9375 322.09064 138.42188 322.1375Q138.95312 322.1844 139.42188 322.5125Q139.84375 322.825 139.40625 323.2625Q139.39062 323.29376 139.39062 323.5594Q139.39062 324.0594 139.42188 324.45Q140.5 324.3094 140.59375 324.23126Q140.96875 324.0125 141.32812 324.23126Q141.59375 324.3875 141.71875 324.5125Q142.125 325.04376 141.4375 325.16876Q140.29688 325.35626 139.5 325.4344Q139.625 327.3875 139.625 329.2Q140.5 329.5125 141.48438 329.8875Q141.84375 330.02814 141.90625 330.34064Q142.03125 330.6844 141.95312 330.90314Q141.76562 331.4969 141.20312 331.1375ZM133.6875 323.3875Q134.0625 323.7469 133.6875 324.10626Q133.64062 324.16876 133.51562 324.52814Q132.59375 327.16876 132.59375 328.575Q132.59375 329.29376 132.64062 329.3719Q132.51562 329.45 132.39062 329.35626Q132.90625 328.04376 133.53125 326.8094Q134.39062 326.6375 134.07812 327.27814Q133.60938 328.325 133.34375 329.3875Q133.20312 329.91876 133.20312 330.21564Q133.20312 330.71564 133.25 331.21564Q133.32812 331.96564 132.67188 331.96564Q132.25 331.96564 132.0625 331.3719Q131.67188 330.2 131.71875 328.3875Q131.76562 326.4344 132.39062 324.29376Q132.46875 323.9969 132.46875 323.60626Q132.46875 323.3094 132.0625 323.1375Q131.04688 322.73126 132.125 322.5125Q132.65625 322.5125 133.0 322.7469Q133.15625 322.85626 133.6875 323.3875ZM138.5 329.90314Q138.01562 329.71564 137.3125 329.71564Q136.48438 329.71564 136.21875 329.96564Q136.15625 330.04376 136.15625 330.1219Q136.15625 330.29376 136.21875 330.3719Q136.57812 330.71564 137.26562 330.71564Q137.90625 330.71564 138.125 330.5125Q138.48438 330.15314 138.5 329.90314Z" fill-rule="nonzero"/><path fill="#1a1a1a" d="M150.01562 326.7469Q149.89062 326.6219 149.85938 326.45Q152.375 325.9344 154.95312 325.41876Q155.42188 325.34064 155.65625 325.16876Q156.01562 324.96564 156.42188 325.16876Q157.09375 325.46564 157.21875 325.66876Q157.67188 326.34064 156.82812 326.34064Q156.34375 326.34064 155.95312 326.29376Q155.60938 326.2469 154.8125 326.3875Q153.0625 326.65314 152.125 327.575Q151.5 328.21564 151.5 329.04376Q151.5 329.91876 152.10938 330.45Q152.65625 330.90314 153.65625 330.95Q154.39062 330.9969 154.5625 330.91876Q155.07812 330.66876 155.4375 330.96564Q155.73438 331.1844 155.79688 331.40314Q156.0 332.0125 155.39062 332.0125Q154.82812 332.0594 154.0625 332.0594Q153.40625 332.0594 152.8125 331.85626Q151.76562 331.5125 151.25 330.95Q150.625 330.2625 150.625 329.09064Q150.625 327.90314 151.45312 327.1219Q151.98438 326.6375 152.375 326.40314Q152.5 326.52814 152.5 326.73126Q148.51562 327.77814 147.84375 328.10626Q147.0625 328.45 147.0625 327.6375Q147.0625 327.34064 147.42188 326.9969Q147.625 326.77814 148.01562 326.77814Q148.54688 326.77814 149.60938 326.075Q151.67188 324.73126 152.98438 322.7Q153.15625 322.77814 153.20312 322.95Q152.26562 323.23126 151.3125 323.5125Q150.67188 323.6844 150.53125 323.825Q150.125 324.2469 149.67188 323.77814Q149.01562 323.1375 149.07812 322.3875Q149.4375 321.3094 149.75 322.40314Q149.875 322.71564 150.15625 322.7469Q150.57812 322.79376 151.09375 322.65314Q152.17188 322.3875 153.15625 322.10626Q153.21875 322.0594 153.42188 321.77814Q154.20312 322.1844 154.46875 322.45Q155.0625 323.02814 154.3125 323.23126Q154.17188 323.27814 154.0 323.41876Q152.40625 325.29376 150.01562 326.7469ZM160.54688 331.575Q160.54688 331.10626 159.57812 330.10626Q159.28125 330.6219 159.0 331.10626Q158.82812 331.35626 158.54688 331.35626Q158.10938 331.35626 158.10938 330.59064Q158.10938 330.21564 158.35938 329.91876Q159.42188 328.6219 160.78125 326.21564Q160.78125 325.90314 160.78125 325.8875Q160.46875 325.9969 160.03125 326.21564Q159.79688 326.3875 159.57812 326.3875Q159.40625 326.3875 159.0625 326.15314Q158.4375 325.7625 158.4375 325.075Q158.60938 324.23126 159.04688 324.8875Q159.21875 325.27814 159.48438 325.27814Q160.0 325.27814 160.78125 325.0125Q160.78125 324.3094 160.78125 323.3719Q160.78125 322.5594 160.125 322.4969Q158.70312 322.4969 160.07812 321.8094Q161.375 321.7 161.90625 322.34064Q162.4375 322.7 161.92188 323.1219Q161.70312 323.48126 161.51562 324.9969Q161.40625 324.85626 161.59375 324.66876Q162.0625 324.90314 162.15625 324.9969Q162.625 325.23126 162.23438 325.60626Q162.01562 325.825 161.70312 326.2625Q161.70312 326.3719 161.53125 326.3719Q163.64062 323.825 165.29688 323.825Q166.75 323.825 166.625 325.1219Q166.34375 328.21564 166.34375 328.90314Q166.34375 330.34064 166.79688 330.34064Q167.98438 330.34064 168.875 328.16876Q169.53125 327.1844 169.53125 328.3719Q168.71875 331.3094 166.79688 331.3094Q166.125 331.3094 165.6875 330.85626Q165.23438 330.41876 165.23438 329.04376Q165.23438 327.48126 165.42188 325.04376Q165.45312 324.7 165.15625 324.7Q164.0 324.7 161.70312 327.1219Q161.75 330.4344 161.79688 330.7469Q161.90625 331.52814 161.48438 331.9344Q161.23438 332.2 160.98438 332.2Q160.54688 332.2 160.54688 331.575ZM160.73438 330.29376Q160.82812 329.23126 160.79688 328.1844Q160.53125 328.575 159.95312 329.46564Q160.34375 329.79376 160.875 330.21564Q160.82812 330.29376 160.73438 330.29376ZM180.57812 331.6375Q180.10938 331.6375 179.96875 331.1844Q179.39062 329.73126 178.42188 329.2Q176.9375 331.66876 172.15625 332.48126Q171.40625 332.48126 171.90625 331.825Q176.10938 330.7 177.23438 328.9344Q178.35938 327.6844 178.3125 321.8094L179.6875 322.2469Q181.07812 322.95 179.51562 323.16876Q179.42188 327.09064 178.79688 328.4969Q179.64062 328.8875 180.375 329.5594Q181.10938 330.2469 181.10938 330.96564Q181.10938 331.6375 180.57812 331.6375ZM175.9375 325.02814Q175.46875 325.02814 175.28125 324.4344Q175.01562 323.52814 173.85938 322.71564Q172.95312 321.8094 174.23438 322.10626Q176.46875 323.0125 176.46875 324.35626Q176.46875 325.02814 175.9375 325.02814ZM172.6875 322.52814Q173.76562 322.9969 172.625 323.325Q172.71875 326.23126 172.79688 328.8875Q174.03125 328.2625 175.625 327.10626Q176.39062 327.10626 176.09375 327.7Q174.15625 329.29376 171.51562 330.98126Q171.1875 332.23126 170.70312 331.2625L170.15625 330.1219Q171.10938 329.7469 171.75 329.45Q171.60938 326.10626 171.45312 322.2L172.6875 322.52814ZM188.14062 331.96564Q186.9375 333.0125 186.9375 331.90314L186.9375 323.29376L182.57812 323.29376L182.57812 322.5125L191.34375 322.5125L192.125 321.73126L193.20312 322.5125Q193.82812 323.04376 193.09375 323.29376L188.14062 323.29376L188.14062 324.9969Q189.57812 325.2469 190.82812 325.96564Q191.75 326.5125 191.75 327.16876Q191.75 327.7469 191.21875 327.7469Q190.8125 327.7469 190.26562 327.04376Q189.70312 326.3094 188.14062 325.77814L188.14062 331.96564Z" fill-rule="nonzero"/><path fill="#ea9999" d="M221.5 327.45C221.5 330.7637 218.8137 333.45 215.5 333.45C212.1863 333.45 209.5 330.7637 209.5 327.45C209.5 324.1363 212.1863 321.45 215.5 321.45C218.8137 321.45 221.5 324.1363 221.5 327.45Z" fill-rule="nonzero"/><path fill="#1a1a1a" d="M237.17188 329.66876Q236.6875 329.48126 236.03125 329.48126Q235.20312 329.48126 234.9375 329.73126Q234.875 329.8094 234.875 329.8875Q234.875 330.0594 234.98438 330.1844Q235.29688 330.48126 235.98438 330.48126Q236.57812 330.48126 236.79688 330.27814Q237.15625 329.91876 237.17188 329.66876ZM232.45312 323.15314Q232.71875 323.41876 232.5 323.85626Q232.46875 323.9344 232.28125 324.48126Q231.5 326.84064 231.5 328.34064Q231.5 329.0594 231.54688 329.1375Q231.42188 329.21564 231.29688 329.1219Q231.8125 327.8094 232.4375 326.575Q233.29688 326.40314 232.98438 327.04376Q232.51562 328.09064 232.25 329.15314Q232.15625 329.4969 232.15625 329.98126Q232.15625 330.325 232.29688 330.96564Q232.45312 331.73126 231.76562 331.73126Q231.26562 331.73126 231.01562 331.10626Q230.625 330.16876 230.625 328.15314Q230.625 327.04376 231.14062 324.45Q231.23438 323.9969 231.23438 323.3719Q231.23438 323.10626 230.8125 322.90314Q229.8125 322.4969 230.89062 322.27814Q231.42188 322.27814 231.67188 322.46564Q232.01562 322.71564 232.45312 323.15314ZM239.875 330.85626Q238.64062 330.1219 238.23438 329.98126Q238.125 330.4969 237.57812 330.8875Q237.0 331.3094 236.17188 331.3094Q234.98438 331.3094 234.45312 330.7625Q234.04688 330.3719 234.04688 329.8875Q234.04688 329.45 234.40625 329.10626Q234.84375 328.65314 236.17188 328.65314Q236.95312 328.65314 237.28125 328.73126Q237.28125 327.5594 237.20312 326.7Q237.07812 326.71564 236.07812 326.71564Q234.60938 326.71564 234.04688 325.48126Q234.04688 324.59064 234.67188 325.23126Q235.07812 325.79376 235.84375 325.79376Q236.71875 325.79376 237.125 325.73126Q237.09375 324.98126 237.04688 324.325Q237.01562 323.7469 236.70312 323.66876Q235.51562 323.71564 234.29688 324.21564Q233.375 324.575 233.92188 323.66876Q234.8125 323.04376 236.17188 322.79376Q237.23438 322.60626 238.75 322.60626Q239.39062 322.60626 239.64062 322.79376Q239.92188 322.98126 239.84375 323.34064Q239.75 323.79376 239.14062 323.71564Q238.375 323.6219 238.39062 323.5594Q238.79688 323.6375 238.17188 324.2469Q238.10938 324.325 238.10938 324.4969Q238.10938 325.10626 238.14062 325.60626Q238.28125 325.60626 239.23438 325.29376Q239.98438 325.04376 240.32812 325.59064Q240.64062 326.1219 240.0625 326.2469Q238.82812 326.52814 238.21875 326.5594Q238.34375 327.9969 238.34375 328.95Q239.59375 329.3719 240.15625 329.60626Q240.51562 329.7469 240.57812 330.0594Q240.70312 330.40314 240.625 330.6219Q240.4375 331.21564 239.875 330.85626ZM247.90625 329.6844Q247.40625 329.48126 246.70312 329.48126Q245.875 329.48126 245.60938 329.73126Q245.54688 329.8094 245.54688 329.8875Q245.54688 330.0594 245.65625 330.1844Q245.96875 330.48126 246.65625 330.48126Q247.29688 330.48126 247.60938 330.1844Q247.90625 329.8719 247.90625 329.6844ZM243.51562 323.15314Q243.76562 323.41876 243.5625 323.85626Q242.54688 326.41876 242.54688 328.34064Q242.54688 329.0594 242.59375 329.1375Q242.46875 329.21564 242.34375 329.1219Q242.85938 327.8094 243.46875 326.60626Q244.1875 326.2469 244.03125 327.0125Q243.20312 328.90314 243.20312 329.98126Q243.20312 330.325 243.34375 330.96564Q243.5 331.73126 242.8125 331.73126Q242.3125 331.73126 242.0625 331.10626Q241.67188 330.16876 241.67188 328.15314Q241.67188 327.04376 242.1875 324.45Q242.28125 323.9969 242.28125 323.3719Q242.28125 323.10626 241.85938 322.90314Q240.85938 322.4969 241.9375 322.27814Q242.40625 322.27814 242.70312 322.45Q243.0625 322.65314 243.51562 323.15314ZM250.59375 330.85626Q249.35938 330.1219 248.9375 329.96564Q248.79688 330.4344 248.46875 330.7625Q247.9375 331.3094 246.79688 331.3094Q245.65625 331.3094 245.125 330.7625Q244.71875 330.3719 244.71875 329.8875Q244.71875 329.45 245.03125 329.15314Q245.51562 328.65314 246.84375 328.65314Q247.76562 328.65314 247.95312 328.7Q247.95312 327.5594 247.875 326.7Q247.75 326.71564 246.75 326.71564Q245.28125 326.71564 244.71875 325.48126Q244.71875 324.59064 245.34375 325.23126Q245.75 325.79376 246.51562 325.79376Q247.39062 325.79376 247.79688 325.73126Q247.76562 324.98126 247.71875 324.325Q247.6875 323.7469 247.375 323.66876Q246.1875 323.71564 244.96875 324.21564Q244.04688 324.575 244.59375 323.66876Q246.01562 322.60626 249.1875 322.60626Q249.64062 322.60626 249.89062 322.79376Q250.17188 322.98126 250.09375 323.34064Q250.0 323.77814 249.25 323.71564Q248.67188 323.6219 248.70312 323.4969Q249.46875 323.6375 248.84375 324.2469Q248.78125 324.325 248.78125 324.54376Q248.78125 325.10626 248.8125 325.60626Q248.95312 325.60626 249.90625 325.29376Q250.65625 325.04376 251.0 325.59064Q251.3125 326.1219 250.73438 326.2469Q249.5 326.52814 248.89062 326.5594Q249.01562 327.95 249.01562 328.95Q250.35938 329.3719 250.875 329.60626Q251.23438 329.7469 251.29688 330.0594Q251.42188 330.40314 251.34375 330.6219Q251.15625 331.21564 250.59375 330.85626ZM251.5 323.46564Q251.5 324.04376 250.96875 324.04376Q250.5625 324.04376 250.40625 323.65314Q250.15625 322.98126 249.25 322.4344Q248.71875 321.6375 249.53125 321.90314Q250.42188 322.0594 250.98438 322.5125Q251.5 322.91876 251.5 323.46564ZM251.34375 322.7625Q251.09375 322.09064 250.1875 321.54376Q249.65625 320.7469 250.46875 321.0125Q251.35938 321.16876 251.96875 321.6844Q252.4375 322.09064 252.4375 322.575Q252.4375 323.15314 251.90625 323.15314Q251.5 323.15314 251.34375 322.7625ZM259.26562 325.73126L259.20312 327.2469L261.04688 327.2469L261.10938 325.73126L259.26562 325.73126ZM262.125 328.02814Q262.04688 329.2625 261.9375 329.96564L262.29688 329.96564L262.98438 329.27814L263.96875 329.96564Q264.59375 330.4969 263.85938 330.7469L261.82812 330.7469Q261.8125 331.0125 261.70312 331.3094Q261.59375 331.7469 261.21875 332.1375Q260.85938 332.4344 260.48438 332.4344Q260.04688 332.4344 260.04688 331.9969Q260.04688 331.96564 259.92188 331.90314L259.26562 331.65314Q258.60938 330.9969 259.51562 330.9969L260.29688 331.1375Q260.57812 331.2 260.65625 330.85626L260.6875 330.7469L255.82812 330.7469L255.65625 331.8094Q254.5625 332.6375 254.5625 331.7L255.09375 328.02814L253.34375 328.02814L253.34375 327.2469L255.20312 327.2469L255.54688 324.2625L256.4375 324.95L261.14062 324.95L261.4375 324.48126L262.53125 325.2Q263.1875 325.96564 262.21875 325.96564L262.15625 327.2469L262.48438 327.2469L263.21875 326.5125L264.25 327.2469Q264.875 327.77814 264.14062 328.02814L262.125 328.02814ZM260.82812 329.96564Q260.9375 329.2469 261.01562 328.02814L259.125 328.02814L258.9375 329.96564L260.82812 329.96564ZM258.09375 327.2469L258.15625 325.73126L256.48438 325.73126L256.3125 327.2469L258.09375 327.2469ZM257.8125 329.96564L258.0 328.02814L256.20312 328.02814L255.9375 329.96564L257.8125 329.96564ZM256.125 323.90314Q255.32812 325.1375 253.84375 326.325Q252.82812 326.60626 253.39062 325.7469Q255.01562 324.02814 256.23438 321.2L257.4375 321.8094Q258.09375 322.46564 256.98438 322.52814Q256.71875 322.98126 256.625 323.1219L261.73438 323.1219L262.46875 322.3875L263.5 323.1219Q264.125 323.65314 263.39062 323.90314L256.125 323.90314ZM268.71875 322.7469L272.73438 322.7469L273.09375 322.27814L273.95312 322.8875Q274.64062 323.46564 273.85938 323.6219L273.85938 331.02814Q272.75 332.0594 272.75 330.96564L272.75 330.3719L268.79688 330.3719L268.79688 331.6375Q267.6875 332.66876 267.6875 331.575L267.6875 321.98126L268.71875 322.7469ZM272.75 323.52814L268.79688 323.52814L268.79688 325.98126L272.75 325.98126L272.75 323.52814ZM272.75 326.7625L268.79688 326.7625L268.79688 329.59064L272.75 329.59064L272.75 326.7625Z" fill-rule="nonzero"/><path fill="#1a1a1a" d="M283.34375 322.21564L285.34375 322.21564Q284.42188 324.2469 284.09375 325.66876Q283.8125 326.85626 283.8125 328.21564Q283.8125 330.825 285.35938 333.98126L283.34375 333.98126Q282.10938 332.23126 281.625 330.90314Q281.15625 329.5594 281.15625 328.075Q281.15625 326.54376 281.65625 325.16876Q282.15625 323.79376 283.34375 322.21564Z" fill-rule="nonzero"/><path fill="#1a1a1a" d="M291.125 325.5125L291.125 321.48126L292.375 321.66876Q293.6875 322.15314 292.32812 322.48126L292.32812 325.5125L294.96875 325.5125L295.75 324.73126L296.82812 325.5125Q297.45312 326.04376 296.71875 326.29376L292.32812 326.29376L292.32812 331.04376L295.48438 331.04376L296.26562 330.2625L297.34375 331.04376Q297.96875 331.575 297.23438 331.825L286.53125 331.825L286.53125 331.04376L291.125 331.04376L291.125 326.29376L287.14062 326.29376L287.14062 325.5125L291.125 325.5125Z" fill-rule="nonzero"/><path fill="#1a1a1a" d="M299.70312 322.21564L301.4375 322.21564L299.17188 331.59064L297.4375 331.59064L299.70312 322.21564Z" fill-rule="nonzero"/><path fill="#1a1a1a" d="M304.71875 322.7469L308.73438 322.7469L309.09375 322.27814L309.95312 322.8875Q310.64062 323.46564 309.85938 323.6219L309.85938 331.02814Q308.75 332.0594 308.75 330.96564L308.75 330.3719L304.79688 330.3719L304.79688 331.6375Q303.6875 332.66876 303.6875 331.575L303.6875 321.98126L304.71875 322.7469ZM308.75 323.52814L304.79688 323.52814L304.79688 325.98126L308.75 325.98126L308.75 323.52814ZM308.75 326.7625L304.79688 326.7625L304.79688 329.59064L308.75 329.59064L308.75 326.7625Z" fill-rule="nonzero"/><path fill="#1a1a1a" d="M314.70312 322.21564L316.4375 322.21564L314.17188 331.59064L312.4375 331.59064L314.70312 322.21564Z" fill-rule="nonzero"/><path fill="#1a1a1a" d="M318.40625 330.0594Q320.79688 327.73126 321.89062 325.1219L318.92188 325.1219L318.92188 324.34064L322.29688 324.34064L322.29688 321.34064L323.45312 321.52814Q324.76562 322.0125 323.40625 322.34064L323.40625 324.34064L325.48438 324.34064L326.26562 323.5594L327.34375 324.34064Q327.96875 324.8719 327.23438 325.1219L323.71875 325.1219Q324.90625 327.84064 327.98438 329.54376Q326.92188 329.9969 326.51562 330.46564Q324.125 328.45 323.40625 326.6219L323.40625 331.91876Q322.29688 332.95 322.29688 331.85626L322.29688 326.7Q321.20312 328.825 318.89062 330.6219Q317.6875 331.21564 318.40625 330.0594ZM317.42188 326.59064Q317.10938 327.04376 316.375 327.7469Q315.53125 328.2469 315.85938 327.29376Q317.57812 324.85626 318.4375 321.29376L319.57812 321.79376Q320.42188 322.40314 319.35938 322.5594Q318.89062 323.8875 318.5 324.5125L318.5625 324.45Q319.53125 325.0594 318.53125 325.23126L318.53125 331.91876Q317.42188 332.95 317.42188 331.85626L317.42188 326.59064ZM331.71875 322.7469L335.73438 322.7469L336.09375 322.27814L336.95312 322.8875Q337.64062 323.46564 336.85938 323.6219L336.85938 331.02814Q335.75 332.0594 335.75 330.96564L335.75 330.3719L331.79688 330.3719L331.79688 331.6375Q330.6875 332.66876 330.6875 331.575L330.6875 321.98126L331.71875 322.7469ZM335.75 323.52814L331.79688 323.52814L331.79688 325.98126L335.75 325.98126L335.75 323.52814ZM335.75 326.7625L331.79688 326.7625L331.79688 329.59064L335.75 329.59064L335.75 326.7625ZM347.76562 324.95Q348.625 324.90314 349.59375 325.46564Q349.89062 325.6844 349.89062 325.90314Q349.89062 326.2 349.54688 326.3719Q348.51562 326.7 345.625 327.98126Q345.625 328.8094 345.625 329.79376Q345.625 330.46564 345.0 330.46564Q344.5625 330.46564 344.5625 329.9344Q344.5625 329.04376 344.5625 328.4969Q343.6875 328.8719 342.92188 329.6375Q342.57812 329.9969 342.57812 330.2625Q342.57812 330.48126 342.73438 330.65314Q343.09375 330.9969 344.53125 330.9969Q346.04688 330.9969 347.03125 330.77814Q347.39062 330.6219 347.625 330.6219Q348.39062 330.6219 348.39062 331.34064Q348.39062 331.7469 347.90625 331.825Q347.09375 332.0125 344.76562 332.0125Q342.82812 332.0125 342.15625 331.325Q341.70312 330.8875 341.70312 330.35626Q341.70312 329.6375 342.34375 329.0125Q343.10938 328.23126 344.5625 327.48126Q344.5625 326.9969 344.3125 326.73126Q344.1875 326.6219 343.875 326.6219Q342.82812 326.6219 341.25 328.5594Q341.03125 328.77814 340.78125 328.77814Q340.29688 328.77814 340.29688 328.10626Q340.29688 327.52814 340.625 327.3719Q340.95312 327.2 341.29688 326.8094Q342.125 325.98126 342.96875 324.6375Q342.96875 324.7 342.26562 324.7469Q341.875 324.79376 341.57812 324.79376Q341.28125 324.79376 340.89062 324.40314Q340.53125 324.09064 340.53125 323.59064Q340.90625 322.85626 341.1875 323.59064Q341.39062 323.8719 342.04688 323.8719Q342.82812 323.8719 343.34375 323.79376Q343.625 323.2469 343.67188 322.8719Q343.73438 322.45 343.17188 322.35626Q342.0625 322.2 343.09375 321.66876Q344.07812 321.5594 345.01562 322.23126Q345.48438 322.6219 344.96875 323.04376Q344.76562 323.21564 344.5 323.6844Q344.96875 323.60626 345.59375 323.34064Q345.875 323.16876 346.07812 323.16876Q346.32812 323.16876 346.54688 323.40314Q346.75 323.4969 346.75 323.84064Q346.75 324.2 346.26562 324.27814Q345.125 324.46564 343.96875 324.6375Q343.42188 325.48126 342.76562 326.41876Q342.625 326.34064 342.54688 326.1844Q343.34375 325.79376 343.92188 325.79376Q344.6875 325.79376 345.07812 326.2Q345.5625 326.6844 345.59375 327.0125Q347.60938 326.0594 348.26562 325.6844Q348.375 325.7625 348.3125 325.85626Q348.07812 325.71564 347.75 325.6219Q346.73438 325.29376 347.76562 324.95ZM353.71875 329.21564Q353.23438 329.71564 352.70312 329.71564Q352.21875 329.71564 352.21875 329.1844Q352.21875 329.10626 352.17188 329.075L351.71875 328.8719Q351.0625 328.23126 351.9375 328.23126L352.48438 328.3875Q352.64062 328.41876 352.79688 328.41876Q352.89062 328.41876 353.01562 328.2469Q353.15625 328.02814 353.15625 327.59064Q353.15625 326.6844 351.95312 325.0594L352.64062 322.825L351.73438 322.825L351.73438 332.0125Q350.625 333.04376 350.625 331.95L350.625 321.4969L351.64062 322.04376L352.82812 322.04376L353.25 321.6375L354.03125 322.23126Q354.96875 322.96564 353.75 323.04376L352.78125 324.95Q353.875 325.85626 354.125 327.15314L356.71875 327.15314L356.71875 325.8719L354.42188 325.8719L354.42188 325.09064L358.26562 325.09064L358.85938 324.4969L359.70312 325.09064Q360.32812 325.6219 359.59375 325.8719L357.82812 325.8719L357.82812 327.15314L359.4375 327.15314L360.125 326.46564L361.0625 327.15314Q361.6875 327.6844 360.95312 327.9344L357.82812 327.9344L357.82812 330.825Q357.82812 331.40314 357.51562 331.7Q357.17188 332.0594 356.78125 332.0594Q356.34375 332.0594 356.34375 331.575Q356.34375 331.54376 356.3125 331.54376L355.59375 331.3875Q354.95312 330.90314 355.67188 330.71564L356.64062 330.71564Q356.71875 330.71564 356.71875 330.6375L356.71875 327.9344L354.21875 327.9344Q354.21875 328.73126 353.71875 329.21564ZM357.20312 322.6219Q356.07812 324.54376 353.78125 325.90314Q352.79688 326.075 353.42188 325.29376Q355.54688 323.6844 356.64062 321.09064L357.60938 321.40314Q358.85938 321.77814 357.78125 322.10626Q359.0 323.96564 362.42188 325.15314Q361.23438 325.41876 360.78125 325.9969Q358.1875 324.4344 357.20312 322.6219ZM358.28125 328.825Q357.28125 328.23126 358.5 328.23126Q359.48438 328.54376 360.54688 329.41876Q361.20312 329.96564 361.20312 330.6375Q361.20312 331.35626 360.67188 331.35626Q360.26562 331.35626 360.0625 330.825Q359.71875 329.95 358.28125 328.825ZM352.92188 331.6219Q351.8125 331.79376 352.57812 331.0125Q353.95312 329.8719 354.84375 328.02814L355.75 328.59064Q357.1875 329.48126 355.45312 329.3875Q354.42188 330.77814 352.92188 331.6219ZM367.17188 331.91876Q366.76562 331.35626 366.39062 330.95Q365.28125 329.6844 364.85938 329.325Q363.6875 328.29376 362.51562 327.2625Q362.29688 327.04376 362.29688 326.7Q362.29688 326.34064 362.57812 326.1219Q364.125 324.95 365.67188 323.73126Q366.26562 323.27814 366.53125 322.98126Q366.70312 322.7625 366.70312 322.6219Q366.70312 322.48126 366.32812 322.2625Q365.73438 321.66876 366.60938 321.66876Q367.3125 321.825 367.6875 322.21564Q368.0 322.5125 368.15625 322.77814Q368.5625 323.48126 367.75 323.48126Q367.73438 323.48126 367.46875 323.66876Q365.40625 325.16876 363.29688 326.66876Q363.26562 326.7 363.26562 326.7Q363.26562 326.7469 363.29688 326.77814Q364.625 327.825 365.89062 328.85626Q366.60938 329.41876 367.54688 330.3094Q368.09375 330.8094 368.3125 331.23126Q368.5 331.7 368.23438 332.09064Q368.04688 332.3719 367.64062 332.27814Q367.40625 332.21564 367.17188 331.91876Z" fill-rule="nonzero"/><path fill="#1a1a1a" d="M371.82812 322.21564L369.82812 322.21564Q370.75 324.2469 371.07812 325.66876Q371.35938 326.85626 371.35938 328.21564Q371.35938 330.825 369.8125 333.98126L371.82812 333.98126Q373.0625 332.23126 373.53125 330.90314Q374.01562 329.5594 374.01562 328.075Q374.01562 326.54376 373.51562 325.16876Q373.01562 323.79376 371.82812 322.21564Z" fill-rule="nonzero"/><path fill="#9fc5e8" d="M166.0 345.45C166.0 348.7637 163.3137 351.45 160.0 351.45C156.6863 351.45 154.0 348.7637 154.0 345.45C154.0 342.1363 156.6863 339.45 160.0 339.45C163.3137 339.45 166.0 342.1363 166.0 345.45Z" fill-rule="nonzero"/><path fill="#1a1a1a" d="M175.5 339.6219Q176.625 339.9344 177.14062 340.45Q177.5 340.79376 177.5 341.325Q177.5 341.9969 177.01562 341.9969Q176.60938 341.9969 176.40625 341.5125Q176.10938 340.84064 175.23438 340.2625Q174.42188 339.6219 175.5 339.6219ZM186.29688 348.9969Q185.25 349.60626 185.125 350.0594L180.34375 350.0594Q178.03125 350.0594 176.71875 348.54376L175.89062 349.3719Q175.70312 350.5594 175.10938 349.6219L174.54688 348.73126L176.25 347.8719L176.25 344.48126L174.65625 344.48126L174.65625 343.7L176.23438 343.7L176.59375 343.23126L177.45312 343.84064Q178.14062 344.41876 177.35938 344.575L177.35938 348.04376Q178.51562 348.9969 179.96875 348.9969L186.29688 348.9969ZM180.82812 345.27814L180.82812 346.5594L182.15625 346.5594L182.15625 345.27814L180.82812 345.27814ZM180.82812 347.95Q179.71875 348.98126 179.71875 347.8875L179.71875 343.95L180.73438 344.4969L182.20312 344.4969L182.54688 344.09064L183.35938 344.6375Q184.04688 345.21564 183.26562 345.3719L183.26562 347.4344Q182.15625 348.46564 182.15625 347.3719L182.15625 347.34064L180.82812 347.34064L180.82812 347.95ZM179.32812 342.60626L179.32812 343.3719L180.75 343.3719L180.75 342.60626L179.32812 342.60626ZM179.32812 341.825L180.75 341.825L180.75 340.8719L179.32812 340.8719L179.32812 341.825ZM181.85938 343.3719L182.34375 343.3719L182.9375 342.77814L183.78125 343.3719Q184.40625 343.90314 183.67188 344.15314L179.32812 344.15314L179.32812 344.5594Q179.32812 346.5125 178.04688 348.2469Q177.10938 349.02814 177.4375 347.8875Q178.21875 346.3719 178.21875 344.41876L178.21875 339.54376L179.23438 340.09064L183.73438 340.09064L184.09375 339.6219L184.95312 340.23126Q185.64062 340.8094 184.85938 340.96564L184.85938 347.79376Q184.85938 348.3719 184.45312 348.7625Q184.20312 349.02814 183.76562 349.02814Q183.375 349.02814 183.375 348.54376Q183.375 348.48126 183.26562 348.46564L182.65625 348.35626Q181.98438 348.02814 182.67188 347.6844L183.67188 347.6844Q183.75 347.6844 183.75 347.60626L183.75 340.8719L181.85938 340.8719L181.85938 341.825L182.29688 341.825L182.85938 341.27814L183.71875 341.95Q184.10938 342.48126 183.46875 342.60626L181.85938 342.60626L181.85938 343.3719Z" fill-rule="nonzero"/><path fill="#1a1a1a" d="M192.40625 340.21564L192.40625 349.45L189.48438 349.45L189.48438 343.98126Q189.28125 344.1375 188.71875 344.41876Q188.15625 344.7 186.98438 345.0594L186.98438 342.575Q188.32812 342.15314 188.95312 341.6375Q189.59375 341.1219 190.01562 340.21564L192.40625 340.21564Z" fill-rule="nonzero"/><path fill="#1a1a1a" d="M198.0 343.41876Q198.78125 343.41876 199.70312 343.66876Q200.5625 343.90314 201.35938 344.1844Q202.21875 344.4969 202.875 344.4969Q204.32812 344.4969 205.01562 343.2625L205.625 343.85626Q204.60938 345.65314 202.78125 345.65314Q201.89062 345.65314 201.01562 345.35626Q200.03125 345.02814 199.39062 344.84064Q198.4375 344.575 197.76562 344.575Q196.64062 344.575 195.40625 345.60626L194.82812 345.02814Q196.5 343.41876 198.0 343.41876Z" fill-rule="nonzero"/><path fill="#1a1a1a" d="M209.26562 343.3875L206.48438 342.8875Q206.85938 341.45 207.73438 340.84064Q208.60938 340.21564 210.14062 340.21564Q211.92188 340.21564 212.75 340.91876Q213.57812 341.60626 213.57812 342.66876Q213.57812 343.29376 213.23438 343.8094Q212.89062 344.3094 212.65625 344.3875Q212.70312 344.35626 212.98438 344.52814Q213.48438 344.84064 213.75 345.325Q214.01562 345.8094 214.01562 346.48126Q214.01562 347.29376 213.57812 348.04376Q213.15625 348.79376 212.35938 349.2Q211.5625 349.59064 210.3125 349.59064Q209.09375 349.59064 208.35938 349.29376Q207.625 348.9969 207.15625 348.4344Q206.6875 347.85626 206.34375 346.73126L209.26562 346.34064Q209.4375 347.21564 209.65625 347.4344Q209.89062 347.6375 210.25 347.6375Q210.625 347.6375 210.85938 347.3719Q211.10938 347.09064 211.10938 346.60626Q211.10938 346.10626 210.875 345.85626Q210.64062 345.60626 210.21875 345.60626Q209.96875 345.60626 209.17188 345.84064L209.34375 343.48126Q209.78125 343.5594 209.89062 343.5594Q210.26562 343.5594 210.5 343.34064Q210.73438 343.10626 210.73438 342.8094Q210.73438 342.52814 210.5625 342.3719Q210.40625 342.2 210.09375 342.2Q209.76562 342.2 209.57812 342.3875Q209.39062 342.575 209.26562 343.3875Z" fill-rule="nonzero"/><path fill="#1a1a1a" d="M216.32812 349.2625L216.32812 349.91876Q215.21875 350.95 215.21875 349.85626L215.21875 339.6375L216.25 340.325L224.0625 340.325L224.46875 339.8094L225.40625 340.46564Q226.28125 341.1219 225.1875 341.2625L225.1875 349.73126Q224.07812 350.7625 224.07812 349.66876L224.07812 349.2625L216.32812 349.2625ZM216.32812 341.10626L216.32812 348.48126L224.07812 348.48126L224.07812 341.10626L216.32812 341.10626ZM218.76562 343.54376L218.76562 345.7625L221.35938 345.7625L221.35938 343.54376L218.76562 343.54376ZM218.67188 342.7625L221.34375 342.7625L221.75 342.2469L222.6875 342.90314Q223.5625 343.5594 222.46875 343.7L222.46875 346.8719Q221.35938 347.90314 221.35938 346.8094L221.35938 346.54376L218.76562 346.54376L218.76562 347.2469Q217.65625 348.27814 217.65625 347.1844L217.65625 342.15314L218.67188 342.7625ZM226.54688 347.575Q227.9375 345.52814 228.40625 343.6844L226.60938 343.6844L226.60938 342.90314L228.48438 342.90314L228.48438 341.27814Q227.70312 341.48126 226.76562 341.6219Q225.9375 341.46564 226.60938 340.95Q228.96875 340.29376 230.54688 339.325L231.34375 340.0125Q232.14062 340.8094 230.64062 340.6375Q229.96875 340.85626 229.59375 340.95L229.59375 342.90314L229.84375 342.90314L230.53125 342.21564L231.46875 342.90314Q232.09375 343.4344 231.35938 343.6844L229.59375 343.6844L229.59375 344.7469Q231.23438 345.2625 231.23438 346.0125Q231.23438 346.59064 230.75 346.59064Q230.35938 346.59064 230.15625 346.1844Q229.82812 345.6844 229.59375 345.5594L229.59375 350.0594Q228.48438 351.09064 228.48438 349.9969L228.48438 346.3875Q228.28125 346.8094 227.09375 347.9969Q226.20312 348.45 226.54688 347.575ZM234.46875 348.90314L236.07812 348.90314L236.85938 348.1219L237.9375 348.90314Q238.5625 349.4344 237.82812 349.6844L230.03125 349.6844L230.03125 348.90314L233.35938 348.90314L233.35938 347.52814L230.92188 347.52814L230.92188 346.7469L233.35938 346.7469L233.35938 345.5125L230.78125 345.5125L230.78125 344.73126L235.79688 344.73126L236.48438 344.04376L237.42188 344.73126Q238.04688 345.2625 237.3125 345.5125L234.46875 345.5125L234.46875 346.7469L235.375 346.7469L236.0625 346.0594L237.0 346.7469Q237.625 347.27814 236.89062 347.52814L234.46875 347.52814L234.46875 348.90314ZM235.40625 340.3719L235.76562 339.90314L236.625 340.5125Q237.3125 341.09064 236.53125 341.2469L236.53125 343.77814Q235.42188 344.8094 235.42188 343.71564L235.42188 343.59064L232.73438 343.59064L232.73438 344.0594Q231.625 345.09064 231.625 343.9969L231.625 339.825L232.64062 340.3719L235.40625 340.3719ZM235.42188 341.15314L232.73438 341.15314L232.73438 342.8094L235.42188 342.8094L235.42188 341.15314ZM245.82812 348.27814Q247.26562 348.9969 250.65625 349.27814Q249.09375 349.8719 248.67188 350.40314Q246.34375 349.9969 244.89062 348.90314Q243.40625 349.85626 239.98438 350.4344Q238.96875 350.29376 239.84375 349.71564Q242.9375 349.0125 244.125 348.23126Q243.57812 347.71564 243.03125 346.73126L241.0 346.73126L241.0 345.95L246.54688 345.95L247.0 345.54376L247.76562 346.1375Q249.01562 346.96564 247.39062 346.96564Q246.42188 347.90314 245.82812 348.27814ZM241.03125 341.48126L241.03125 344.1375Q241.03125 347.3094 239.125 349.9969Q238.25 350.575 238.53125 349.575Q239.92188 346.9344 239.92188 344.41876L239.92188 340.15314L240.9375 340.7L244.0 340.7L244.0 339.0594L245.14062 339.2625Q246.10938 339.8719 245.10938 340.04376L245.10938 340.7L247.9375 340.7L248.625 340.0125L249.5625 340.7Q250.1875 341.23126 249.45312 341.48126L241.03125 341.48126ZM246.70312 343.4969L246.70312 345.3719Q245.59375 346.40314 245.59375 345.3094L245.59375 345.09064L243.9375 345.09064L243.9375 345.5125Q242.82812 346.54376 242.82812 345.45L242.82812 343.4969L241.04688 343.4969L241.04688 342.71564L242.82812 342.71564L242.82812 341.2625L243.96875 341.46564Q244.9375 342.075 243.9375 342.2469L243.9375 342.71564L245.59375 342.71564L245.59375 341.3094L246.73438 341.5125Q247.70312 342.1219 246.70312 342.29376L246.70312 342.71564L247.75 342.71564L248.4375 342.02814L249.375 342.71564Q250.0 343.2469 249.26562 343.4969L246.70312 343.4969ZM244.90625 347.71564Q245.8125 346.9969 246.0625 346.73126L243.95312 346.73126Q244.29688 347.2469 244.90625 347.71564ZM245.59375 343.4969L243.9375 343.4969L243.9375 344.3094L245.59375 344.3094L245.59375 343.4969Z" fill-rule="nonzero"/><path fill="#757575" d="M29.76875 30.175Q31.440624 30.378124 30.221874 31.253124L30.221874 31.503124L37.8 31.503124L37.8 33.8L31.95625 33.8Q33.815624 35.3625 38.409374 36.20625L37.503124 38.721874Q32.346874 37.51875 30.221874 35.33125L30.221874 39.26875L27.846874 39.26875L27.846874 35.690624Q25.4875 37.9875 20.425 38.925L19.409374 36.440624Q24.55 35.596874 26.45625 33.8L20.190624 33.8L20.190624 31.503124L27.846874 31.503124L27.846874 30.175L28.253124 30.45625Q27.721874 29.659374 26.878124 28.284374L29.315624 27.284374Q30.26875 28.440624 30.675 30.190624L29.7375 30.378124L29.76875 30.175ZM21.33125 25.971874Q31.58125 25.64375 35.33125 25.14375L36.346874 26.721874Q36.846874 27.95625 35.39375 27.471874Q30.6125 27.940624 21.83125 28.096874L21.33125 25.971874ZM24.20625 27.51875Q25.33125 28.64375 25.940624 30.659374L23.39375 31.659374Q22.815624 29.909374 21.8625 28.534374L24.20625 27.51875ZM31.878124 30.565624Q33.14375 28.784374 34.284374 26.9875L36.284374 28.128124Q37.284374 28.8 35.925 29.14375Q35.14375 30.284374 33.9875 31.721874L31.878124 30.565624ZM24.878124 22.284374L24.878124 20.64375L26.8 20.64375Q28.471874 20.846874 27.253124 21.721874L27.253124 22.284374L30.58125 22.284374L30.58125 20.64375L32.503124 20.64375Q34.175 20.846874 32.95625 21.721874L32.95625 22.284374L37.8 22.284374L37.8 24.58125L32.95625 24.58125L32.95625 25.284374L30.58125 25.284374L30.58125 24.58125L27.253124 24.58125L27.253124 25.675L24.878124 25.675L24.878124 24.58125L20.190624 24.58125L20.190624 22.284374L24.878124 22.284374ZM50.096874 26.39375Q48.784374 34.14375 46.815624 36.096874Q45.690624 37.2375 44.425 37.2375Q43.003124 37.2375 42.190624 36.409374Q40.190624 34.425 40.190624 31.440624Q40.190624 27.83125 42.7375 25.3Q45.503124 22.51875 49.503124 22.51875Q53.1125 22.51875 55.175 24.596874Q57.4875 26.89375 57.4875 30.034374Q57.4875 33.409374 55.33125 35.55Q53.95625 36.940624 50.89375 38.33125L48.58125 36.01875Q51.8625 34.9875 53.3625 33.503124Q54.721874 32.128124 54.721874 30.190624Q54.721874 27.8625 53.20625 26.33125Q51.690624 24.815624 49.909374 24.909374L49.909374 24.89375Q51.64375 25.628124 50.096874 26.39375ZM47.471874 25.175Q46.1125 25.4875 44.70625 26.878124Q42.8 28.8 42.8 31.596874Q42.8 33.221874 43.846874 34.284374Q43.971874 34.39375 44.26875 34.39375Q44.565624 34.39375 45.003124 33.971874Q46.690624 32.26875 47.471874 25.175ZM59.409374 32.721874Q63.08125 30.315624 64.75313 26.1125L66.59688 27.034374Q67.75313 27.95625 66.50313 28.14375Q66.1125 28.971874 65.69063 29.675L65.69063 39.034374L63.315624 39.034374L63.315624 32.909374Q62.753124 33.628124 60.784374 34.89375L59.409374 32.721874ZM77.08125 28.846874Q77.90938 30.08125 76.55 29.909374Q73.25313 31.89375 70.925 32.45625L70.925 36.284374Q70.83125 36.284374 70.83125 36.190624L74.97188 36.190624Q75.175 36.190624 75.19063 36.065624L75.4875 33.89375L78.01875 34.58125L77.64375 36.815624Q77.34688 38.4875 75.59688 38.4875L70.44063 38.4875Q68.55 38.4875 68.55 36.596874L68.55 26.425L70.55 26.425Q71.925 26.659374 70.925 27.4875L70.925 30.065624Q73.28438 29.128124 75.64375 27.3L77.08125 28.846874ZM64.87813 25.284374L59.95625 25.284374L59.95625 22.9875L64.87813 22.9875L64.87813 20.721874L66.8 20.721874Q68.47188 20.925 67.25313 21.8L67.25313 22.9875L70.34688 22.9875L70.34688 20.721874L72.26875 20.721874Q73.94063 20.925 72.72188 21.8L72.72188 22.9875L77.64375 22.9875L77.64375 25.284374L72.72188 25.284374L72.72188 26.846874L70.34688 26.846874L70.34688 25.284374L67.25313 25.284374L67.25313 26.846874L64.87813 26.846874L64.87813 25.284374ZM90.22188 37.8Q85.97188 38.565624 82.3625 39.065624Q82.20625 40.33125 81.2375 39.128124L80.64375 36.534374L83.31563 36.378124L83.31563 27.346874Q82.25313 27.909374 80.3625 28.596874L79.44063 26.175Q85.78438 24.221874 87.62813 20.45625L90.15938 20.7375Q91.14375 21.721874 90.00313 21.753124L90.14375 21.596874Q92.69063 24.440624 98.56563 25.8625L97.22188 28.20625Q95.87813 28.003124 94.28438 27.3L94.28438 31.784374L94.89375 31.175L96.675 32.95625Q96.90938 34.159374 95.97188 33.846874L92.89375 35.83125Q93.78438 36.440624 98.14375 36.878124L97.09688 39.3Q89.75313 38.6125 87.89375 33.4875L85.69063 33.4875L85.69063 36.14375L90.22188 35.596874L90.22188 37.8ZM90.2375 33.4875Q90.31563 33.721874 91.09688 34.4875L92.33125 33.4875L90.2375 33.4875ZM91.90938 31.425L91.90938 30.83125L85.69063 30.83125L85.69063 31.425L91.90938 31.425ZM85.69063 28.76875L91.90938 28.76875L91.90938 28.175L85.69063 28.175L85.69063 28.76875ZM88.75313 23.253124Q87.26875 25.190624 85.6125 26.1125L87.69063 26.1125L87.69063 24.08125L89.6125 24.08125Q91.28438 24.284374 90.06563 25.159374L90.06563 26.1125L91.7375 26.1125Q90.97188 25.753124 88.75313 23.253124ZM114.76875 22.909374Q114.3 23.846874 113.37813 25.065624L111.26875 24.128124Q112.19063 22.58125 112.87813 21.003124L114.95625 21.8Q115.90938 22.7375 114.76875 22.909374ZM109.9875 24.2375L117.64375 24.2375L117.64375 29.190624L115.26875 29.190624L115.26875 26.534374L102.40938 26.534374L102.40938 29.346874L100.03438 29.346874L100.03438 24.2375L107.6125 24.2375L107.6125 20.4875L109.53438 20.4875Q111.20625 20.690624 109.9875 21.565624L109.9875 24.2375ZM103.90938 25.20625Q103.7375 24.33125 102.28438 22.253124L104.34688 20.9875Q105.72188 22.565624 106.15938 23.89375L103.90938 25.20625ZM109.9875 32.08125L109.9875 32.9875L115.925 32.9875L115.925 35.284374L109.9875 35.284374L109.9875 36.425L117.95625 36.425L117.95625 38.721874L99.8 38.721874L99.8 36.425L107.6125 36.425L107.6125 35.284374L101.75313 35.284374L101.75313 32.9875L107.6125 32.9875L107.6125 32.08125L105.90938 32.08125L103.39375 32.08125L103.39375 26.89375L114.28438 26.89375L114.28438 32.08125L109.9875 32.08125ZM111.90938 30.01875L111.90938 28.95625L105.76875 28.95625L105.76875 30.01875L111.90938 30.01875ZM125.97188 27.503124Q126.00313 27.3625 126.925 27.3625Q128.1125 27.3625 128.84688 28.1125Q129.425 28.690624 129.4875 29.55Q131.33125 28.8625 134.70625 27.8L135.4875 30.51875Q132.03438 31.05 129.675 31.95625L129.675 35.51875L127.3 35.51875L127.3 32.940624Q125.59688 33.7375 124.94063 34.378124Q124.20625 35.128124 124.20625 35.815624Q124.20625 36.1125 124.55 36.471874Q124.9875 36.89375 126.37813 36.89375L133.34688 36.89375L133.34688 39.190624L126.3 39.190624Q123.62813 39.190624 122.50313 38.05Q121.59688 37.159374 121.59688 35.815624Q121.59688 34.39375 122.7375 33.26875Q124.34688 31.64375 127.20625 30.471874Q127.15938 29.9875 126.95625 29.76875Q126.75313 29.58125 125.90938 29.58125Q124.50313 29.58125 121.12813 32.55L119.15938 30.58125Q123.175 28.1125 124.14375 26.1125Q122.65938 26.221874 120.1125 26.409374L119.62813 24.01875Q122.925 23.925 125.15938 23.784374Q125.44063 23.1125 126.08125 20.55L127.9875 21.05Q129.7375 21.753124 128.19063 22.378124Q127.94063 23.20625 127.76875 23.64375Q129.925 23.45625 132.89375 23.003124L133.25313 25.4875Q129.76875 25.753124 126.95625 25.971874Q126.25313 27.3625 125.97188 27.503124ZM137.34688 28.253124L137.34688 25.95625L141.33125 25.95625L141.33125 24.221874L138.15938 24.440624L137.53438 22.2375Q142.39375 21.971874 146.00313 21.221874L146.97188 22.8625Q147.175 24.315624 146.01875 23.659374L143.70625 23.909374L143.70625 25.95625L147.925 25.95625L147.925 28.253124L143.70625 28.253124L143.70625 29.3Q145.95625 30.315624 147.7375 32.190624L146.05 34.346874Q144.59688 32.690624 143.70625 32.065624L143.70625 39.1125L141.33125 39.1125L141.33125 32.675Q140.72188 33.7375 138.1125 35.89375L136.75313 33.51875Q140.06563 31.034374 141.01875 28.253124L137.34688 28.253124ZM153.8 21.503124Q155.47188 21.70625 154.25313 22.58125L154.25313 37.3Q154.25313 38.95625 152.59688 38.95625L150.47188 38.95625L149.9875 36.659374L152.05 36.659374Q152.05 36.83125 151.87813 36.83125L151.87813 21.503124L153.8 21.503124ZM149.81563 23.45625Q151.4875 23.659374 150.26875 24.534374L150.26875 35.20625L147.89375 35.20625L147.89375 23.45625L149.81563 23.45625ZM171.72188 32.70625L167.45625 32.70625L167.45625 38.64375L165.08125 38.64375L165.08125 32.70625L161.19063 32.70625Q161.05 36.534374 158.39375 39.3625L156.56563 37.55Q158.83125 35.034374 158.83125 32.065624L158.83125 21.659374L174.09688 21.659374L174.09688 36.9875Q174.09688 38.64375 172.44063 38.64375L169.925 38.64375L169.34688 36.1125L171.81563 36.1125Q171.81563 36.20625 171.72188 36.20625L171.72188 32.70625ZM161.20625 28.33125L161.20625 30.409374L165.08125 30.409374L165.08125 28.33125L161.20625 28.33125ZM161.20625 23.95625L161.20625 26.034374L165.08125 26.034374L165.08125 23.95625L161.20625 23.95625ZM167.45625 28.33125L167.45625 30.409374L171.72188 30.409374L171.72188 28.33125L167.45625 28.33125ZM167.45625 23.95625L167.45625 26.034374L171.72188 26.034374L171.72188 23.95625L167.45625 23.95625ZM185.15938 33.784374Q184.7375 34.034374 183.6125 34.034374Q182.1125 34.034374 181.3 33.20625Q180.2375 32.159374 180.2375 30.815624Q180.2375 29.39375 181.3 28.346874Q182.34688 27.284374 183.925 27.284374Q184.90938 27.284374 185.31563 27.39375L185.31563 26.64375L176.8 27.175L176.33125 24.721874L185.31563 24.33125L185.31563 20.64375L187.15938 20.64375Q189.05 20.9875 187.69063 21.89375L187.69063 24.20625L194.33125 23.7375L194.33125 26.20625L187.69063 26.51875L187.69063 29.05Q188.00313 30.45625 188.00313 32.221874Q187.925 36.440624 183.12813 39.425L180.925 37.8Q185.15938 35.346874 185.15938 33.784374ZM184.08125 29.425Q183.39375 29.425 182.95625 29.846874Q182.6125 30.20625 182.6125 30.815624Q182.6125 31.346874 182.87813 31.628124Q183.15938 31.89375 183.84688 31.89375Q184.53438 31.89375 184.97188 31.471874Q185.31563 31.1125 185.31563 30.58125Q185.31563 30.05 184.97188 29.690624Q184.69063 29.425 184.08125 29.425ZM206.31563 36.3Q207.03438 36.20625 207.8 35.45625Q208.6125 34.628124 208.6125 33.2375Q208.6125 31.690624 207.72188 30.784374Q206.81563 29.89375 204.8 29.89375Q202.34688 29.89375 201.05 30.83125Q199.76875 31.7375 197.40938 34.440624L195.45625 32.70625Q201.3625 26.8 203.65938 23.83125Q202.03438 24.034374 199.1125 24.3L198.31563 21.659374Q202.65938 21.659374 205.55 21.284374L206.45625 20.878124L207.50313 21.925Q208.95625 23.253124 207.05 23.6125Q204.78438 26.159374 203.33125 27.76875Q203.7375 27.675 204.87813 27.675Q208.01875 27.675 209.53438 29.20625Q211.06563 30.721874 211.06563 33.08125Q211.06563 35.51875 209.69063 36.878124Q207.70625 38.878124 204.64375 38.878124Q201.7375 38.878124 200.37813 37.503124Q199.2375 36.378124 199.2375 34.8Q199.2375 33.690624 200.06563 32.878124Q200.95625 31.971874 202.14375 31.971874Q203.72188 31.971874 204.76875 33.034374Q205.95625 34.221874 206.31563 36.3ZM204.01875 36.64375Q203.78438 35.14375 203.19063 34.534374Q202.75313 34.1125 202.37813 34.1125Q201.925 34.1125 201.72188 34.3Q201.45625 34.58125 201.45625 34.878124Q201.45625 35.409374 201.95625 35.925Q202.62813 36.58125 203.70625 36.58125Q204.01875 36.58125 204.01875 36.64375ZM221.31563 34.89375Q218.675 38.675 213.53438 39.70625L212.45625 37.55Q217.64375 36.471874 220.05 32.64375L221.51875 33.8Q222.62813 34.89375 221.31563 34.89375ZM219.97188 28.784374Q222.19063 30.6125 222.25313 30.721874L222.25313 24.628124L224.675 24.628124L224.90938 23.409374L221.39375 23.409374L221.39375 21.1125L230.87813 21.1125L230.87813 23.409374L227.20625 23.409374L226.97188 24.628124L230.40938 24.628124L230.40938 36.065624L228.84688 36.065624Q229.05 36.253124 231.58125 37.33125L230.51875 39.45625Q228.14375 38.503124 226.25313 36.8L226.83125 36.065624L225.3625 36.065624L225.64375 36.440624Q226.45625 37.659374 225.1125 37.4875Q223.55 38.675 221.05 39.51875L219.87813 37.26875Q222.31563 36.6125 223.03438 36.065624L222.25313 36.065624L222.25313 33.51875L221.75313 34.01875Q220.2375 31.940624 218.4875 30.284374L219.97188 28.784374ZM216.56563 30.096874Q217.87813 31.14375 216.47188 31.14375Q215.75313 33.346874 213.97188 35.6125L212.175 34.065624Q213.78438 32.096874 214.8625 29.034374L216.56563 30.096874ZM215.7375 22.51875Q217.40938 22.721874 216.19063 23.596874L216.19063 26.89375L216.8625 26.89375L216.8625 20.721874L218.55 20.721874Q220.22188 20.925 219.00313 21.8L219.00313 23.378124L221.81563 23.378124L221.81563 25.440624L219.00313 25.440624L219.00313 26.89375L222.51875 26.89375L222.51875 28.95625L219.00313 28.95625L219.00313 33.784374Q219.00313 35.3625 217.7375 35.3625L216.01875 35.3625L215.50313 33.3L216.95625 33.3Q216.95625 33.39375 216.8625 33.39375L216.8625 28.95625L212.56563 28.95625L212.56563 26.89375L214.05 26.89375L214.05 22.51875L215.7375 22.51875ZM228.03438 34.003124L228.03438 32.8625L224.62813 32.8625L224.62813 34.003124L228.03438 34.003124ZM224.62813 30.8L228.03438 30.8L228.03438 29.89375L224.62813 29.89375L224.62813 30.8ZM224.62813 27.83125L228.03438 27.83125L228.03438 26.690624L224.62813 26.690624L224.62813 27.83125ZM250.55 39.39375Q246.3625 38.8625 243.6125 37.45625Q240.9875 39.01875 236.76875 39.45625L235.83125 37.01875Q239.81563 36.675 241.58125 35.784374Q240.70625 34.909374 239.8 33.64375L237.40938 33.64375L237.40938 31.58125L246.78438 31.58125L247.15938 31.20625L248.65938 32.409374Q249.50313 33.675 248.22188 33.51875Q247.00313 34.940624 245.72188 35.846874Q247.65938 36.503124 251.12813 36.76875L250.55 39.39375ZM243.53438 22.596874L250.56563 22.596874L250.56563 24.89375L236.7375 24.89375L236.7375 31.3625Q236.7375 35.8625 234.47188 39.315624L232.40938 37.596874Q234.3625 34.971874 234.3625 31.05L234.3625 22.596874L240.925 22.596874L240.925 20.565624L243.08125 20.565624Q244.75313 20.76875 243.53438 21.64375L243.53438 22.596874ZM243.62813 34.596874Q244.26875 34.175 244.8 33.64375L242.59688 33.64375Q242.8 33.89375 243.62813 34.596874ZM246.81563 31.3L244.44063 31.3L244.44063 30.83125L241.89375 30.83125L241.89375 31.378124L239.51875 31.378124L239.51875 28.253124L236.39375 28.253124L236.39375 26.190624L239.51875 26.190624L239.51875 24.70625L241.44063 24.70625Q243.1125 24.909374 241.89375 25.784374L241.89375 26.190624L244.44063 26.190624L244.44063 24.55L246.3625 24.55Q248.03438 24.753124 246.81563 25.628124L246.81563 26.190624L250.56563 26.190624L250.56563 28.253124L246.81563 28.253124L246.81563 31.3ZM244.44063 28.253124L241.89375 28.253124L241.89375 28.76875L244.44063 28.76875L244.44063 28.253124ZM258.97186 27.503124Q259.0031 27.3625 259.925 27.3625Q261.1125 27.3625 261.84686 28.1125Q262.425 28.690624 262.4875 29.55Q264.33124 28.8625 267.70624 27.8L268.4875 30.51875Q265.03436 31.05 262.675 31.95625L262.675 35.51875L260.3 35.51875L260.3 32.940624Q258.59686 33.7375 257.9406 34.378124Q257.20624 35.128124 257.20624 35.815624Q257.20624 36.1125 257.55 36.471874Q257.9875 36.89375 259.3781 36.89375L266.34686 36.89375L266.34686 39.190624L259.3 39.190624Q256.6281 39.190624 255.50313 38.05Q254.59688 37.159374 254.59688 35.815624Q254.59688 34.39375 255.7375 33.26875Q257.34686 31.64375 260.20624 30.471874Q260.15936 29.9875 259.95624 29.76875Q259.7531 29.58125 258.90936 29.58125Q257.5031 29.58125 254.12813 32.55L252.15938 30.58125Q256.175 28.1125 257.14374 26.1125Q255.65938 26.221874 253.1125 26.409374L252.62813 24.01875Q255.925 23.925 258.15936 23.784374Q258.4406 23.1125 259.08124 20.55L260.9875 21.05Q262.7375 21.753124 261.1906 22.378124Q260.9406 23.20625 260.76874 23.64375Q262.925 23.45625 265.89374 23.003124L266.2531 25.4875Q262.76874 25.753124 259.95624 25.971874Q259.2531 27.3625 258.97186 27.503124ZM271.4406 35.425Q270.8 37.190624 270.20624 35.221874L269.58124 33.159374L274.09686 33.003124L274.09686 31.51875L274.90936 31.628124L275.39374 31.14375L273.3156 31.14375Q272.05 32.1125 270.2531 32.909374L269.09686 30.690624Q272.01874 29.45625 273.39374 28.175L269.64374 28.175L269.64374 26.1125L273.2375 26.1125L273.2375 25.20625L270.58124 25.20625L270.58124 23.14375L273.2375 23.14375L273.2375 20.565624L274.925 20.565624Q276.59686 20.76875 275.3781 21.64375L275.3781 23.14375L277.5656 23.14375L277.39374 23.55Q277.65936 22.815624 278.55 20.83125L280.09686 21.8625Q281.72186 22.675 280.09686 23.05Q279.45624 24.471874 278.15936 26.1125L279.7531 26.1125L279.7531 28.175L276.5656 28.175Q275.8781 28.925 275.6906 29.08125L276.925 29.08125L277.3156 28.440624L278.8781 30.01875Q279.83124 31.534374 278.40936 31.175L276.2375 32.7375L276.2375 32.8625Q277.425 32.753124 280.3 32.284374L280.3 34.45625Q277.20624 34.89375 276.2375 35.003124L276.2375 37.45625Q276.2375 39.1125 274.8156 39.1125L272.6125 39.1125L272.1281 36.815624L274.1906 36.815624Q274.1906 36.909374 274.09686 36.909374L274.09686 35.253124Q272.89374 35.3625 271.4406 35.425ZM283.3625 22.284374Q282.8625 24.284374 282.70624 24.784374L288.03436 24.784374L288.03436 27.08125L286.65936 27.08125Q286.3 30.45625 284.7375 33.596874Q285.8 35.190624 288.53436 36.690624L287.03436 38.784374Q284.45624 37.128124 283.40936 35.64375Q281.95624 37.628124 278.175 39.471874L276.8156 37.190624Q280.5656 35.4875 281.90936 33.596874Q280.51874 31.01875 280.40936 30.065624L279.53436 31.45625L278.0656 29.4875Q280.20624 26.440624 281.3 20.51875L283.20624 21.128124Q284.97186 21.565624 283.3625 22.284374ZM275.33124 26.1125Q276.05 25.253124 276.08124 25.20625L275.3781 25.20625L275.3781 26.1125L275.33124 26.1125ZM283.2375 31.45625Q283.95624 30.065624 284.425 27.08125L281.97186 27.08125Q282.15936 29.596874 283.2375 31.45625ZM290.90936 26.6125Q298.3625 26.1125 300.2375 25.815624L301.0656 25.39375L302.9406 27.26875Q299.6125 29.64375 298.40936 30.940624Q298.90936 30.8625 299.4875 31.05Q300.6125 31.471874 300.6125 32.76875L300.6125 35.425Q300.6125 35.925 301.1281 35.878124L306.15936 35.878124L305.70624 38.409374L301.45624 38.409374Q298.2375 38.409374 298.2375 35.58125L298.2375 33.628124Q298.2375 33.096874 297.47186 33.096874Q296.6125 33.096874 295.72186 33.925Q293.70624 35.784374 291.6906 38.2375L289.59686 36.83125Q293.65936 32.096874 297.8 28.409374L291.72186 29.14375L290.90936 26.6125ZM301.175 24.51875Q297.28436 24.425 293.1125 23.9875L293.45624 21.346874Q296.8156 22.05 301.53436 22.05L301.175 24.51875ZM324.3156 25.284374Q321.15936 25.284374 319.675 25.8Q318.03436 26.39375 316.6125 27.815624Q315.2531 29.190624 315.2531 31.3625Q315.2531 33.065624 316.3 34.128124Q317.7531 35.565624 322.6125 35.7375L321.6906 38.26875Q316.6281 38.003124 314.72186 36.096874Q312.8 34.190624 312.8 31.440624Q312.8 27.565624 314.51874 26.3Q312.4875 26.6125 308.3 27.20625L307.6125 24.58125Q315.7375 24.003124 323.84686 22.6125L324.3156 25.284374ZM325.8781 29.95625Q325.8781 28.909374 326.8625 28.01875Q331.90936 23.284374 333.59686 20.534374L335.39374 21.925Q336.8625 23.565624 334.90936 23.284374Q333.8625 24.83125 328.83124 29.55Q328.64374 29.7375 328.64374 29.8Q328.64374 30.065624 328.8 30.175Q333.20624 33.64375 336.14374 37.003124L334.14374 38.9875Q331.15936 35.471874 327.1906 32.065624Q325.8781 30.925 325.8781 29.95625ZM354.15936 30.034374Q349.2375 30.20625 346.3 31.440624L345.59686 29.096874Q349.3781 27.596874 353.70624 27.596874L354.15936 30.034374ZM354.47186 35.721874L354.47186 38.253124L350.6281 38.253124Q347.5656 38.253124 344.45624 36.6125L345.53436 34.471874Q347.84686 35.721874 350.6281 35.721874L354.47186 35.721874ZM347.59686 26.690624Q345.14374 27.159374 343.6281 27.346874Q342.5031 34.05 340.6281 38.503124L338.1281 37.70625Q340.39374 32.425 341.15936 27.596874Q339.70624 27.70625 337.95624 27.70625L337.47186 25.33125Q340.14374 25.33125 341.51874 25.20625Q341.78436 23.1125 342.08124 20.878124L344.08124 21.284374Q345.90936 21.784374 344.4875 22.565624Q344.3 23.315624 344.01874 24.95625Q345.2375 24.784374 347.1125 24.3L347.59686 26.690624ZM351.65936 20.503124Q353.26874 21.409374 355.39374 22.9875L354.2531 24.753124Q352.20624 23.26875 350.53436 22.284374L351.65936 20.503124ZM350.1125 22.065624Q351.8625 23.128124 353.83124 24.534374L352.6906 26.315624Q350.64374 24.909374 348.97186 23.83125L350.1125 22.065624ZM362.58124 27.175Q359.65936 27.39375 356.22186 27.39375L355.5031 25.01875Q359.8625 25.01875 361.65936 24.89375Q361.05 23.190624 360.64374 20.8L362.89374 20.8Q364.425 21.14375 363.45624 21.9875Q363.70624 23.20625 364.22186 24.675Q366.6125 24.471874 368.9406 23.925L369.51874 26.471874Q366.8 26.846874 365.22186 26.95625Q366.4406 29.284374 369.925 31.675L368.26874 33.659374Q365.175 32.2375 362.45624 32.2375Q360.05 32.2375 359.14374 33.128124Q358.8 33.4875 358.8 34.175Q358.8 34.784374 359.3781 35.378124Q360.3625 36.346874 364.2531 36.346874L367.5031 36.346874L366.925 38.878124L363.6281 38.878124Q359.39374 38.878124 357.64374 37.1125Q356.34686 35.83125 356.34686 34.175Q356.34686 32.51875 357.33124 31.55Q358.84686 30.01875 361.9875 30.01875Q365.08124 30.01875 365.425 30.7375Q363.1906 28.596874 362.58124 27.175Z" fill-rule="nonzero"/><path fill="#757575" d="M28.20625 57.08125Q27.3625 59.2375 26.534374 60.2375Q25.315624 61.70625 24.034374 61.70625Q21.815624 61.70625 20.76875 59.190624Q20.190624 57.784374 20.190624 53.33125Q20.190624 50.190624 20.55 46.503124L22.64375 47.003124Q24.503124 47.45625 23.01875 48.409374Q22.721874 51.08125 22.721874 53.409374Q22.721874 56.55 23.096874 57.83125Q23.39375 58.8625 23.878124 58.8625Q24.4875 58.8625 25.003124 57.83125Q25.378124 57.08125 25.940624 55.503124L28.20625 57.08125ZM32.39375 47.58125Q36.20625 51.58125 37.065624 57.3L34.175 58.05Q33.190624 52.26875 30.01875 48.940624L32.39375 47.58125Z" fill-rule="nonzero"/></svg>