<svg version="1.1" viewBox="0.0 0.0 404.0 372.0" fill="none" stroke="none" stroke-linecap="square" stroke-miterlimit="10" width="350" height="400" xmlns:xlink="http://www.w3.org/1999/xlink" xmlns="http://www.w3.org/2000/svg"><path fill="#ffffff" fill-opacity="0.0" d="M0 0L404.0 0L404.0 372.0L0 372.0L0 0Z" fill-rule="nonzero"/><path fill="#666666" d="M84.06899 241.3181C71.80318 203.5678 78.35092 162.22696 101.68189 130.11462C125.01286 98.0023 162.30698 79.0 202.0 79.0L202.0 203.0Z" fill-rule="nonzero"/><path fill="#f4cccc" d="M202.0 79.0C265.4655 79.0 318.68677 126.92062 325.3207 190.03847C331.95468 253.15633 289.8597 311.0951 227.78105 324.2903C165.70241 337.48553 103.680916 301.6774 84.06899 241.3181L202.0 203.0Z" fill-rule="nonzero"/><path fill="#000000" d="M225.19621 237.85764L225.19621 248.04514L222.36809 248.04514L222.36809 241.37326Q221.69621 241.88889 221.05559 242.21701Q220.41496 242.52951 219.44621 242.82639L219.44621 240.54514Q220.86809 240.07639 221.64934 239.43576Q222.44621 238.79514 222.88371 237.85764L225.19621 237.85764ZM232.66496 246.17014L227.58684 246.17014L227.58684 243.88889L232.66496 237.85764L235.08684 237.85764L235.08684 244.01389L236.35246 244.01389L236.35246 246.17014L235.08684 246.17014L235.08684 248.04514L232.66496 248.04514L232.66496 246.17014ZM232.66496 244.01389L232.66496 240.85764L229.99309 244.01389L232.66496 244.01389ZM244.47746 237.85764L246.21184 237.85764Q245.30559 239.84201 244.91496 241.51389Q244.58684 242.95139 244.58684 244.56076Q244.58684 247.68576 246.21184 250.99826L244.47746 250.99826Q243.14934 249.10764 242.60246 247.59201Q242.07121 246.07639 242.07121 244.40451Q242.07121 242.67014 242.63371 241.12326Q243.19621 239.56076 244.47746 237.85764ZM246.93059 238.02951L255.05559 238.02951L255.05559 239.90451Q253.99309 240.85764 253.28996 241.96701Q252.43059 243.32639 251.93059 244.98264Q251.52434 246.27951 251.39934 248.04514L248.61809 248.04514Q248.94621 245.59201 249.64934 243.93576Q250.35246 242.26389 251.88371 240.37326L246.93059 240.37326L246.93059 238.02951ZM255.88371 242.99826Q255.88371 240.13889 256.89935 238.99826Q257.9306 237.85764 260.03998 237.85764Q261.0556 237.85764 261.69623 238.10764Q262.35248 238.35764 262.75873 238.76389Q263.1806 239.15451 263.41498 239.59201Q263.64935 240.02951 263.78998 240.62326Q264.07123 241.74826 264.07123 242.95139Q264.07123 245.68576 263.14935 246.95139Q262.22748 248.21701 259.96185 248.21701Q258.69623 248.21701 257.91498 247.81076Q257.14935 247.40451 256.64935 246.62326Q256.28998 246.07639 256.08685 245.12326Q255.88371 244.15451 255.88371 242.99826ZM258.64935 242.99826Q258.64935 244.92014 258.97748 245.62326Q259.32123 246.31076 259.96185 246.31076Q260.38373 246.31076 260.69623 246.01389Q261.00873 245.71701 261.14935 245.07639Q261.3056 244.43576 261.3056 243.07639Q261.3056 241.07639 260.96185 240.38889Q260.6181 239.70139 259.94623 239.70139Q259.25873 239.70139 258.94623 240.40451Q258.64935 241.10764 258.64935 242.99826ZM265.14935 245.24826L268.13373 245.24826L268.13373 248.04514L265.14935 248.04514L265.14935 245.24826ZM269.88373 242.99826Q269.88373 240.13889 270.89935 238.99826Q271.9306 237.85764 274.03998 237.85764Q275.0556 237.85764 275.69623 238.10764Q276.35248 238.35764 276.75873 238.76389Q277.1806 239.15451 277.41498 239.59201Q277.64935 240.02951 277.78998 240.62326Q278.07123 241.74826 278.07123 242.95139Q278.07123 245.68576 277.14935 246.95139Q276.22748 248.21701 273.96185 248.21701Q272.69623 248.21701 271.91498 247.81076Q271.14935 247.40451 270.64935 246.62326Q270.28998 246.07639 270.08685 245.12326Q269.88373 244.15451 269.88373 242.99826ZM272.64935 242.99826Q272.64935 244.92014 272.97748 245.62326Q273.32123 246.31076 273.96185 246.31076Q274.38373 246.31076 274.69623 246.01389Q275.00873 245.71701 275.14935 245.07639Q275.3056 244.43576 275.3056 243.07639Q275.3056 241.07639 274.96185 240.38889Q274.6181 239.70139 273.94623 239.70139Q273.25873 239.70139 272.94623 240.40451Q272.64935 241.10764 272.64935 242.99826ZM287.4931 237.85764L288.9306 237.85764L283.14935 248.56076L281.71185 248.56076L287.4931 237.85764ZM278.97748 240.48264Q278.97748 239.77951 279.27435 239.15451Q279.58685 238.52951 280.21185 238.20139Q280.83685 237.85764 281.69623 237.85764Q282.96185 237.85764 283.6806 238.57639Q284.39935 239.29514 284.39935 240.48264Q284.39935 241.68576 283.6806 242.40451Q282.96185 243.12326 281.69623 243.12326Q280.83685 243.12326 280.21185 242.79514Q279.58685 242.45139 279.27435 241.82639Q278.97748 241.18576 278.97748 240.48264ZM280.89935 240.49826Q280.89935 241.34201 281.1806 241.73264Q281.35248 241.98264 281.69623 241.98264Q282.03998 241.98264 282.21185 241.73264Q282.47748 241.34201 282.47748 240.49826Q282.47748 239.65451 282.21185 239.26389Q282.03998 239.01389 281.69623 239.01389Q281.35248 239.01389 281.1806 239.26389Q280.89935 239.65451 280.89935 240.49826ZM286.21185 245.90451Q286.21185 245.20139 286.50873 244.57639Q286.8056 243.95139 287.4306 243.60764Q288.07123 243.26389 288.91498 243.26389Q290.1806 243.26389 290.89935 243.98264Q291.63373 244.70139 291.63373 245.90451Q291.63373 247.10764 290.89935 247.82639Q290.1806 248.54514 288.91498 248.54514Q288.07123 248.54514 287.4306 248.20139Q286.8056 247.85764 286.50873 247.23264Q286.21185 246.60764 286.21185 245.90451ZM288.13373 245.92014Q288.13373 246.76389 288.39935 247.15451Q288.57123 247.38889 288.91498 247.38889Q289.25873 247.38889 289.4306 247.15451Q289.71185 246.76389 289.71185 245.92014Q289.71185 245.07639 289.4306 244.68576Q289.25873 244.43576 288.91498 244.43576Q288.57123 244.43576 288.39935 244.68576Q288.13373 245.07639 288.13373 245.92014ZM294.58685 237.85764L292.85248 237.85764Q293.75873 239.84201 294.14935 241.51389Q294.47748 242.95139 294.47748 244.56076Q294.47748 247.68576 292.85248 250.99826L294.58685 250.99826Q295.91498 249.10764 296.44623 247.59201Q296.9931 246.07639 296.9931 244.40451Q296.9931 242.67014 296.4306 241.12326Q295.8681 239.56076 294.58685 237.85764Z" fill-rule="nonzero"/><path fill="#000000" d="M116.67685 156.89468L113.8956 157.23843Q113.786224 156.66031 113.536224 156.42593Q113.286224 156.17593 112.911224 156.17593Q112.223724 156.17593 111.848724 156.86343Q111.5831 157.34781 111.442474 158.97281Q111.942474 158.45718 112.473724 158.22281Q113.004974 157.97281 113.692474 157.97281Q115.036224 157.97281 115.9581 158.94156Q116.879974 159.89468 116.879974 161.36343Q116.879974 162.34781 116.411224 163.17593Q115.942474 163.98843 115.11435 164.41031Q114.286224 164.83218 113.036224 164.83218Q111.536224 164.83218 110.61435 164.31656Q109.7081 163.80093 109.161224 162.67593Q108.629974 161.55093 108.629974 159.70718Q108.629974 156.98843 109.7706 155.73843Q110.911224 154.47281 112.92685 154.47281Q114.129974 154.47281 114.817474 154.75406Q115.5206 155.01968 115.973724 155.55093Q116.42685 156.08218 116.67685 156.89468ZM111.536224 161.36343Q111.536224 162.17593 111.942474 162.64468Q112.36435 163.09781 112.9581 163.09781Q113.504974 163.09781 113.86435 162.67593Q114.23935 162.25406 114.23935 161.42593Q114.23935 160.58218 113.848724 160.14468Q113.473724 159.69156 112.911224 159.69156Q112.3331 159.69156 111.92685 160.12906Q111.536224 160.55093 111.536224 161.36343ZM125.2081 154.47281L126.942474 154.47281Q126.036224 156.45718 125.6456 158.12906Q125.317474 159.56656 125.317474 161.17593Q125.317474 164.30093 126.942474 167.61343L125.2081 167.61343Q123.879974 165.72281 123.3331 164.20718Q122.80185 162.69156 122.80185 161.01968Q122.80185 159.28531 123.36435 157.73843Q123.92685 156.17593 125.2081 154.47281ZM130.31747 157.53531L127.67685 157.06656Q128.00497 155.80093 128.94247 155.14468Q129.87997 154.47281 131.5831 154.47281Q133.55185 154.47281 134.42685 155.20718Q135.30185 155.92593 135.30185 157.03531Q135.30185 157.69156 134.94247 158.22281Q134.5831 158.73843 133.86435 159.12906Q134.44247 159.28531 134.75497 159.47281Q135.25497 159.78531 135.5206 160.28531Q135.80185 160.78531 135.80185 161.48843Q135.80185 162.36343 135.34872 163.16031Q134.8956 163.95718 134.0206 164.39468Q133.16122 164.83218 131.7706 164.83218Q130.3956 164.83218 129.59872 164.51968Q128.81747 164.19156 128.30185 163.58218Q127.80185 162.95718 127.536224 162.01968L130.31747 161.64468Q130.47372 162.48843 130.81747 162.81656Q131.16122 163.12906 131.69247 163.12906Q132.25497 163.12906 132.62997 162.72281Q133.00497 162.31656 133.00497 161.62906Q133.00497 160.94156 132.6456 160.56656Q132.28622 160.17593 131.67685 160.17593Q131.34872 160.17593 130.7706 160.33218L130.91122 158.34781Q131.1456 158.37906 131.2706 158.37906Q131.81747 158.37906 132.17685 158.03531Q132.55185 157.67593 132.55185 157.20718Q132.55185 156.73843 132.2706 156.47281Q132.00497 156.19156 131.5206 156.19156Q131.03622 156.19156 130.72372 156.48843Q130.42685 156.78531 130.31747 157.53531ZM136.61435 159.61343Q136.61435 156.75406 137.62997 155.61343Q138.66122 154.47281 140.7706 154.47281Q141.78622 154.47281 142.42685 154.72281Q143.0831 154.97281 143.48935 155.37906Q143.91122 155.76968 144.1456 156.20718Q144.37997 156.64468 144.5206 157.23843Q144.80185 158.36343 144.80185 159.56656Q144.80185 162.30093 143.87997 163.56656Q142.9581 164.83218 140.69247 164.83218Q139.42685 164.83218 138.6456 164.42593Q137.87997 164.01968 137.37997 163.23843Q137.0206 162.69156 136.81747 161.73843Q136.61435 160.76968 136.61435 159.61343ZM139.37997 159.61343Q139.37997 161.53531 139.7081 162.23843Q140.05185 162.92593 140.69247 162.92593Q141.11435 162.92593 141.42685 162.62906Q141.73935 162.33218 141.87997 161.69156Q142.03622 161.05093 142.03622 159.69156Q142.03622 157.69156 141.69247 157.00406Q141.34872 156.31656 140.67685 156.31656Q139.98935 156.31656 139.67685 157.01968Q139.37997 157.72281 139.37997 159.61343ZM145.87997 161.86343L148.86435 161.86343L148.86435 164.66031L145.87997 164.66031L145.87997 161.86343ZM150.61435 159.61343Q150.61435 156.75406 151.62997 155.61343Q152.66122 154.47281 154.7706 154.47281Q155.78622 154.47281 156.42685 154.72281Q157.0831 154.97281 157.48935 155.37906Q157.91122 155.76968 158.1456 156.20718Q158.37997 156.64468 158.5206 157.23843Q158.80185 158.36343 158.80185 159.56656Q158.80185 162.30093 157.87997 163.56656Q156.9581 164.83218 154.69247 164.83218Q153.42685 164.83218 152.6456 164.42593Q151.87997 164.01968 151.37997 163.23843Q151.0206 162.69156 150.81747 161.73843Q150.61435 160.76968 150.61435 159.61343ZM153.37997 159.61343Q153.37997 161.53531 153.7081 162.23843Q154.05185 162.92593 154.69247 162.92593Q155.11435 162.92593 155.42685 162.62906Q155.73935 162.33218 155.87997 161.69156Q156.03622 161.05093 156.03622 159.69156Q156.03622 157.69156 155.69247 157.00406Q155.34872 156.31656 154.67685 156.31656Q153.98935 156.31656 153.67685 157.01968Q153.37997 157.72281 153.37997 159.61343ZM168.22372 154.47281L169.66122 154.47281L163.87997 165.17593L162.44247 165.17593L168.22372 154.47281ZM159.7081 157.09781Q159.7081 156.39468 160.00497 155.76968Q160.31747 155.14468 160.94247 154.81656Q161.56747 154.47281 162.42685 154.47281Q163.69247 154.47281 164.41122 155.19156Q165.12997 155.91031 165.12997 157.09781Q165.12997 158.30093 164.41122 159.01968Q163.69247 159.73843 162.42685 159.73843Q161.56747 159.73843 160.94247 159.41031Q160.31747 159.06656 160.00497 158.44156Q159.7081 157.80093 159.7081 157.09781ZM161.62997 157.11343Q161.62997 157.95718 161.91122 158.34781Q162.0831 158.59781 162.42685 158.59781Q162.7706 158.59781 162.94247 158.34781Q163.2081 157.95718 163.2081 157.11343Q163.2081 156.26968 162.94247 155.87906Q162.7706 155.62906 162.42685 155.62906Q162.0831 155.62906 161.91122 155.87906Q161.62997 156.26968 161.62997 157.11343ZM166.94247 162.51968Q166.94247 161.81656 167.23935 161.19156Q167.53622 160.56656 168.16122 160.22281Q168.80185 159.87906 169.6456 159.87906Q170.91122 159.87906 171.62997 160.59781Q172.36435 161.31656 172.36435 162.51968Q172.36435 163.72281 171.62997 164.44156Q170.91122 165.16031 169.6456 165.16031Q168.80185 165.16031 168.16122 164.81656Q167.53622 164.47281 167.23935 163.84781Q166.94247 163.22281 166.94247 162.51968ZM168.86435 162.53531Q168.86435 163.37906 169.12997 163.76968Q169.30185 164.00406 169.6456 164.00406Q169.98935 164.00406 170.16122 163.76968Q170.44247 163.37906 170.44247 162.53531Q170.44247 161.69156 170.16122 161.30093Q169.98935 161.05093 169.6456 161.05093Q169.30185 161.05093 169.12997 161.30093Q168.86435 161.69156 168.86435 162.53531ZM175.31747 154.47281L173.5831 154.47281Q174.48935 156.45718 174.87997 158.12906Q175.2081 159.56656 175.2081 161.17593Q175.2081 164.30093 173.5831 167.61343L175.31747 167.61343Q176.6456 165.72281 177.17685 164.20718Q177.72372 162.69156 177.72372 161.01968Q177.72372 159.28531 177.16122 157.73843Q176.59872 156.17593 175.31747 154.47281Z" fill-rule="nonzero"/><path fill="#f4cccc" d="M158.0 346.4C158.0 349.7137 155.3137 352.4 152.0 352.4C148.6863 352.4 146.0 349.7137 146.0 346.4C146.0 343.0863 148.6863 340.4 152.0 340.4C155.3137 340.4 158.0 343.0863 158.0 346.4Z" fill-rule="nonzero"/><path fill="#1a1a1a" d="M175.14062 344.38437Q175.21875 345.93124 175.14062 347.54062Q176.40625 348.00937 177.9375 349.10312L177.09375 350.41562Q175.92188 349.525 175.125 349.13437Q175.125 349.69687 174.53125 350.275Q173.90625 350.91562 172.71875 350.91562Q171.53125 350.91562 170.90625 350.275Q170.35938 349.74374 170.35938 348.88437Q170.35938 348.11874 170.8125 347.68124Q171.4375 347.04062 172.67188 347.04062Q173.3125 347.04062 173.65625 347.11874Q173.73438 345.8375 173.65625 344.4625L170.17188 344.69687L170.17188 343.2125L173.53125 343.025Q173.5 341.9625 173.32812 340.66562L174.60938 340.66562Q175.76562 340.86874 174.9375 341.41562Q174.98438 342.25937 175.01562 342.94687L177.5625 342.80624L177.5625 344.29062L175.14062 344.38437ZM167.57812 350.72812Q167.35938 349.13437 167.35938 347.38437Q167.35938 343.55624 167.98438 341.00937L169.28125 341.24374Q170.125 341.60312 169.35938 341.97812Q168.89062 343.47812 168.89062 347.38437Q168.89062 349.13437 169.17188 350.44687L167.57812 350.72812ZM173.65625 348.55624Q173.0625 348.38437 172.67188 348.38437Q172.125 348.38437 171.90625 348.5875Q171.75 348.75937 171.75 348.88437Q171.75 349.15 171.85938 349.275Q172.125 349.525 172.67188 349.525Q173.21875 349.525 173.42188 349.29062Q173.6875 348.97812 173.65625 348.55624ZM183.79688 347.7125Q183.29688 349.00937 182.79688 349.60312Q182.07812 350.49374 181.29688 350.49374Q179.95312 350.49374 179.32812 348.97812Q178.98438 348.13437 178.98438 345.4625Q178.98438 343.57187 179.20312 341.35312L180.46875 341.65Q181.59375 341.94687 180.6875 342.50937Q180.51562 344.11874 180.51562 345.50937Q180.51562 347.4 180.73438 348.15Q180.92188 348.775 181.20312 348.775Q181.5625 348.775 181.875 348.16562Q182.09375 347.7125 182.4375 346.75937L183.79688 347.7125ZM186.3125 342.00937Q188.60938 344.41562 189.125 347.85312L187.375 348.30624Q186.78125 344.82187 184.875 342.82187L186.3125 342.00937Z" fill-rule="nonzero"/><path fill="#666666" d="M217.0 346.4C217.0 349.7137 214.3137 352.4 211.0 352.4C207.6863 352.4 205.0 349.7137 205.0 346.4C205.0 343.0863 207.6863 340.4 211.0 340.4C214.3137 340.4 217.0 343.0863 217.0 346.4Z" fill-rule="nonzero"/><path fill="#1a1a1a" d="M230.79688 347.7125Q230.29688 349.00937 229.79688 349.60312Q229.07812 350.49374 228.29688 350.49374Q226.95312 350.49374 226.32812 348.97812Q225.98438 348.13437 225.98438 345.4625Q225.98438 343.57187 226.20312 341.35312L227.46875 341.65Q228.59375 341.94687 227.6875 342.50937Q227.51562 344.11874 227.51562 345.50937Q227.51562 347.4 227.73438 348.15Q227.92188 348.775 228.20312 348.775Q228.5625 348.775 228.875 348.16562Q229.09375 347.7125 229.4375 346.75937L230.79688 347.7125ZM233.3125 342.00937Q235.60938 344.41562 236.125 347.85312L234.375 348.30624Q233.78125 344.82187 231.875 342.82187L233.3125 342.00937ZM241.79688 347.7125Q241.29688 349.00937 240.79688 349.60312Q240.07812 350.49374 239.29688 350.49374Q237.95312 350.49374 237.32812 348.97812Q236.98438 348.13437 236.98438 345.4625Q236.98438 343.57187 237.20312 341.35312L238.46875 341.65Q239.59375 341.94687 238.6875 342.50937Q238.51562 344.11874 238.51562 345.50937Q238.51562 347.4 238.73438 348.15Q238.92188 348.775 239.20312 348.775Q239.5625 348.775 239.875 348.16562Q240.09375 347.7125 240.4375 346.75937L241.79688 347.7125ZM244.3125 342.00937Q246.60938 344.41562 247.125 347.85312L245.375 348.30624Q244.78125 344.82187 242.875 342.82187L244.3125 342.00937ZM248.42188 343.82187Q252.89062 343.525 254.01562 343.35312L254.51562 343.10312L255.65625 344.22812Q253.65625 345.65 252.9375 346.41562Q253.21875 346.38437 253.5625 346.49374Q254.25 346.74374 254.25 347.525L254.25 349.11874Q254.25 349.41562 254.54688 349.38437L257.57812 349.38437L257.29688 350.91562L254.75 350.91562Q252.8125 350.91562 252.8125 349.2125L252.8125 348.04062Q252.8125 347.72812 252.35938 347.72812Q251.84375 347.72812 251.3125 348.22812Q250.10938 349.3375 248.89062 350.80624L247.625 349.9625Q250.07812 347.11874 252.53125 344.91562L248.90625 345.35312L248.42188 343.82187ZM254.59375 342.57187Q252.25 342.525 249.73438 342.25937L249.9375 340.66562Q251.96875 341.0875 254.79688 341.0875L254.59375 342.57187Z" fill-rule="nonzero"/><path fill="#757575" d="M12.645125 34.053123Q14.8795 33.6625 15.72325 33.50625L15.72325 30.021873L13.301375 30.021873L13.301375 27.724998L15.72325 27.724998L15.72325 24.396873L12.91075 24.396873L12.91075 22.099998L20.676376 22.099998L20.676376 24.396873L18.098251 24.396873L18.098251 27.724998L20.285751 27.724998L20.285751 30.021873L18.098251 30.021873L18.098251 32.990623L20.473251 32.31875L21.082626 34.4125Q17.332626 35.63125 14.47325 36.365623Q14.03575 37.38125 13.332625 36.44375L12.645125 34.053123ZM28.067001 24.521873L28.067001 23.459373L22.942001 23.459373L22.942001 24.521873L28.067001 24.521873ZM28.067001 27.646873L28.067001 26.584373L22.942001 26.584373L22.942001 27.646873L28.067001 27.646873ZM28.067001 30.771873L28.067001 29.709373L22.942001 29.709373L22.942001 30.771873L28.067001 30.771873ZM25.801376 32.834373L25.129501 32.834373L25.129501 33.209373Q25.129501 38.334373 17.098251 39.271873L16.285751 36.75625Q22.754501 36.19375 22.754501 33.13125L22.754501 32.834373L22.067001 32.834373L20.567001 32.834373L20.567001 21.396873L30.442001 21.396873L30.442001 32.834373L28.176376 32.834373L28.176376 36.56875Q28.176376 36.7875 28.317001 36.7875L28.863876 36.7875Q29.035751 36.7875 29.098251 36.6Q29.238876 36.1625 29.457626 34.334373L31.895126 35.021873Q31.692001 36.490623 31.520126 37.13125Q31.067001 39.084373 29.567001 39.084373L27.535751 39.084373Q25.801376 39.084373 25.801376 37.35L25.801376 32.834373ZM50.457626 39.115623Q45.53575 36.0375 44.72325 30.787498Q44.72325 36.428123 39.72325 39.31875L38.47325 36.94375Q43.067 34.459373 43.067 28.381248L39.0045 28.381248L39.0045 26.084373L43.145126 26.084373L43.145126 20.771873L45.067 20.771873Q46.738876 20.974998 45.520126 21.849998L45.520126 26.084373L51.067 26.084373L51.067 28.381248L45.97325 28.381248Q46.66075 33.584373 51.645126 36.396873L50.457626 39.115623ZM32.817 32.053123Q35.613876 30.740623 36.738876 29.959373L36.738876 20.849998L38.66075 20.849998Q40.332626 21.053123 39.113876 21.928123L39.113876 39.1625L36.738876 39.1625L36.738876 32.725L34.707626 34.06875Q34.53575 35.240623 33.582626 34.2875L32.817 32.053123ZM34.7545 29.521873Q34.192 27.256248 32.97325 25.037498L35.28575 24.115623Q36.5045 26.099998 37.16075 28.709373L34.7545 29.521873ZM47.22325 21.693748Q49.176376 22.756248 49.988876 24.381248L48.16075 26.193748Q47.16075 24.584373 45.5045 23.412498L47.22325 21.693748ZM63.363876 26.443748Q62.051376 34.19375 60.082626 36.146873Q58.957626 37.2875 57.692 37.2875Q56.270126 37.2875 55.457626 36.459373Q53.457626 34.475 53.457626 31.490623Q53.457626 27.881248 56.0045 25.349998Q58.770126 22.568748 62.770126 22.568748Q66.3795 22.568748 68.442 24.646873Q70.7545 26.943748 70.7545 30.084373Q70.7545 33.459373 68.59825 35.6Q67.22325 36.990623 64.16075 38.38125L61.84825 36.06875Q65.1295 35.0375 66.6295 33.553123Q67.98888 32.178123 67.98888 30.240623Q67.98888 27.912498 66.47325 26.381248Q64.95763 24.865623 63.176376 24.959373L63.176376 24.943748Q64.91075 25.678123 63.363876 26.443748ZM60.738876 25.224998Q59.3795 25.537498 57.97325 26.928123Q56.067 28.849998 56.067 31.646873Q56.067 33.271873 57.113876 34.334373Q57.238876 34.44375 57.53575 34.44375Q57.832626 34.44375 58.270126 34.021873Q59.957626 32.31875 60.738876 25.224998ZM83.03575 30.224998Q84.70763 30.428123 83.48888 31.303123L83.48888 31.553123L91.067 31.553123L91.067 33.85L85.22325 33.85Q87.08263 35.4125 91.67638 36.25625L90.77013 38.771873Q85.61388 37.56875 83.48888 35.38125L83.48888 39.31875L81.11388 39.31875L81.11388 35.740623Q78.7545 38.0375 73.692 38.975L72.67638 36.490623Q77.817 35.646873 79.72325 33.85L73.45763 33.85L73.45763 31.553123L81.11388 31.553123L81.11388 30.224998L81.52013 30.506248Q80.98888 29.709373 80.14513 28.334373L82.58263 27.334373Q83.53575 28.490623 83.942 30.240623L83.0045 30.428123L83.03575 30.224998ZM74.59825 26.021873Q84.84825 25.693748 88.59825 25.193748L89.61388 26.771873Q90.11388 28.006248 88.66075 27.521873Q83.8795 27.990623 75.09825 28.146873L74.59825 26.021873ZM77.47325 27.568748Q78.59825 28.693748 79.20763 30.709373L76.66075 31.709373Q76.08263 29.959373 75.1295 28.584373L77.47325 27.568748ZM85.14513 30.615623Q86.41075 28.834373 87.55138 27.037498L89.55138 28.178123Q90.55138 28.849998 89.192 29.193748Q88.41075 30.334373 87.2545 31.771873L85.14513 30.615623ZM78.14513 22.334373L78.14513 20.693748L80.067 20.693748Q81.73888 20.896873 80.52013 21.771873L80.52013 22.334373L83.84825 22.334373L83.84825 20.693748L85.77013 20.693748Q87.442 20.896873 86.22325 21.771873L86.22325 22.334373L91.067 22.334373L91.067 24.631248L86.22325 24.631248L86.22325 25.334373L83.84825 25.334373L83.84825 24.631248L80.52013 24.631248L80.52013 25.724998L78.14513 25.724998L78.14513 24.631248L73.45763 24.631248L73.45763 22.334373L78.14513 22.334373ZM103.36388 26.443748Q102.05138 34.19375 100.08263 36.146873Q98.95763 37.2875 97.692 37.2875Q96.27013 37.2875 95.45763 36.459373Q93.45763 34.475 93.45763 31.490623Q93.45763 27.881248 96.0045 25.349998Q98.77013 22.568748 102.77013 22.568748Q106.3795 22.568748 108.442 24.646873Q110.7545 26.943748 110.7545 30.084373Q110.7545 33.459373 108.59825 35.6Q107.22325 36.990623 104.16075 38.38125L101.84825 36.06875Q105.1295 35.0375 106.6295 33.553123Q107.98888 32.178123 107.98888 30.240623Q107.98888 27.912498 106.47325 26.381248Q104.95763 24.865623 103.17638 24.959373L103.17638 24.943748Q104.91075 25.678123 103.36388 26.443748ZM100.73888 25.224998Q99.3795 25.537498 97.97325 26.928123Q96.067 28.849998 96.067 31.646873Q96.067 33.271873 97.11388 34.334373Q97.23888 34.44375 97.53575 34.44375Q97.83263 34.44375 98.27013 34.021873Q99.95763 32.31875 100.73888 25.224998ZM112.67638 32.771873Q116.34825 30.365623 118.02013 26.162498L119.86388 27.084373Q121.02013 28.006248 119.77013 28.193748Q119.3795 29.021873 118.95763 29.724998L118.95763 39.084373L116.58263 39.084373L116.58263 32.959373Q116.02013 33.678123 114.05138 34.94375L112.67638 32.771873ZM130.34825 28.896873Q131.17638 30.131248 129.817 29.959373Q126.52013 31.943748 124.192 32.50625L124.192 36.334373Q124.09825 36.334373 124.09825 36.240623L128.23888 36.240623Q128.442 36.240623 128.45763 36.115623L128.7545 33.94375L131.28575 34.63125L130.91075 36.865623Q130.61388 38.5375 128.86388 38.5375L123.70763 38.5375Q121.817 38.5375 121.817 36.646873L121.817 26.474998L123.817 26.474998Q125.192 26.709373 124.192 27.537498L124.192 30.115623Q126.55138 29.178123 128.91075 27.349998L130.34825 28.896873ZM118.14513 25.334373L113.22325 25.334373L113.22325 23.037498L118.14513 23.037498L118.14513 20.771873L120.067 20.771873Q121.73888 20.974998 120.52013 21.849998L120.52013 23.037498L123.61388 23.037498L123.61388 20.771873L125.53575 20.771873Q127.20763 20.974998 125.98888 21.849998L125.98888 23.037498L130.91075 23.037498L130.91075 25.334373L125.98888 25.334373L125.98888 26.896873L123.61388 26.896873L123.61388 25.334373L120.52013 25.334373L120.52013 26.896873L118.14513 26.896873L118.14513 25.334373ZM143.48888 37.85Q139.23888 38.615623 135.6295 39.115623Q135.47325 40.38125 134.5045 39.178123L133.91075 36.584373L136.58263 36.428123L136.58263 27.396873Q135.52013 27.959373 133.6295 28.646873L132.70763 26.224998Q139.05138 24.271873 140.89513 20.506248L143.42638 20.787498Q144.41075 21.771873 143.27013 21.803123L143.41075 21.646873Q145.95763 24.490623 151.83263 25.912498L150.48888 28.256248Q149.14513 28.053123 147.55138 27.349998L147.55138 31.834373L148.16075 31.224998L149.942 33.00625Q150.17638 34.209373 149.23888 33.896873L146.16075 35.88125Q147.05138 36.490623 151.41075 36.928123L150.36388 39.35Q143.02013 38.6625 141.16075 33.5375L138.95763 33.5375L138.95763 36.19375L143.48888 35.646873L143.48888 37.85ZM143.5045 33.5375Q143.58263 33.771873 144.36388 34.5375L145.59825 33.5375L143.5045 33.5375ZM145.17638 31.474998L145.17638 30.881248L138.95763 30.881248L138.95763 31.474998L145.17638 31.474998ZM138.95763 28.818748L145.17638 28.818748L145.17638 28.224998L138.95763 28.224998L138.95763 28.818748ZM142.02013 23.303123Q140.53575 25.240623 138.8795 26.162498L140.95763 26.162498L140.95763 24.131248L142.8795 24.131248Q144.55138 24.334373 143.33263 25.209373L143.33263 26.162498L145.0045 26.162498Q144.23888 25.803123 142.02013 23.303123ZM168.03575 22.959373Q167.567 23.896873 166.64513 25.115623L164.53575 24.178123Q165.45763 22.631248 166.14513 21.053123L168.22325 21.849998Q169.17638 22.787498 168.03575 22.959373ZM163.2545 24.287498L170.91075 24.287498L170.91075 29.240623L168.53575 29.240623L168.53575 26.584373L155.67638 26.584373L155.67638 29.396873L153.30138 29.396873L153.30138 24.287498L160.8795 24.287498L160.8795 20.537498L162.80138 20.537498Q164.47325 20.740623 163.2545 21.615623L163.2545 24.287498ZM157.17638 25.256248Q157.0045 24.381248 155.55138 22.303123L157.61388 21.037498Q158.98888 22.615623 159.42638 23.943748L157.17638 25.256248ZM163.2545 32.13125L163.2545 33.0375L169.192 33.0375L169.192 35.334373L163.2545 35.334373L163.2545 36.475L171.22325 36.475L171.22325 38.771873L153.067 38.771873L153.067 36.475L160.8795 36.475L160.8795 35.334373L155.02013 35.334373L155.02013 33.0375L160.8795 33.0375L160.8795 32.13125L159.17638 32.13125L156.66075 32.13125L156.66075 26.943748L167.55138 26.943748L167.55138 32.13125L163.2545 32.13125ZM165.17638 30.068748L165.17638 29.006248L159.03575 29.006248L159.03575 30.068748L165.17638 30.068748ZM183.36388 26.443748Q182.05138 34.19375 180.08263 36.146873Q178.95763 37.2875 177.692 37.2875Q176.27013 37.2875 175.45763 36.459373Q173.45763 34.475 173.45763 31.490623Q173.45763 27.881248 176.0045 25.349998Q178.77013 22.568748 182.77013 22.568748Q186.3795 22.568748 188.442 24.646873Q190.7545 26.943748 190.7545 30.084373Q190.7545 33.459373 188.59825 35.6Q187.22325 36.990623 184.16075 38.38125L181.84825 36.06875Q185.1295 35.0375 186.6295 33.553123Q187.98888 32.178123 187.98888 30.240623Q187.98888 27.912498 186.47325 26.381248Q184.95763 24.865623 183.17638 24.959373L183.17638 24.943748Q184.91075 25.678123 183.36388 26.443748ZM180.73888 25.224998Q179.3795 25.537498 177.97325 26.928123Q176.067 28.849998 176.067 31.646873Q176.067 33.271873 177.11388 34.334373Q177.23888 34.44375 177.53575 34.44375Q177.83263 34.44375 178.27013 34.021873Q179.95763 32.31875 180.73888 25.224998ZM203.83263 24.521873Q202.47325 23.474998 201.08263 22.724998L202.567 20.568748Q204.47325 21.615623 206.7545 23.349998L205.95763 24.521873L211.067 24.521873L211.067 26.818748L205.91075 26.818748L205.91075 30.146873L210.05138 30.146873L210.05138 32.44375L205.91075 32.44375L205.91075 36.1625L211.61388 36.1625L211.61388 38.459373L197.52013 38.459373L197.52013 36.1625L203.53575 36.1625L203.53575 32.44375L199.317 32.44375L199.317 30.146873L203.53575 30.146873L203.53575 26.818748L198.22325 26.818748L198.22325 24.521873L203.83263 24.521873ZM198.45763 32.6Q196.80138 35.834373 195.41075 38.00625Q196.14513 39.646873 194.48888 38.709373L192.7545 37.35Q194.83263 34.4125 196.34825 31.209373L198.45763 32.6ZM196.98888 30.615623Q195.17638 29.006248 193.34825 27.834373L194.77013 26.053123Q196.7545 27.084373 198.3795 28.537498L196.98888 30.615623ZM197.2545 26.240623Q195.72325 24.693748 193.817 23.474998L195.317 21.521873Q197.317 22.568748 198.84825 24.193748L197.2545 26.240623ZM222.45763 34.6Q218.7545 37.7875 214.16075 39.178123L213.17638 36.5375Q217.64513 35.271873 220.55138 32.7875Q218.02013 30.053123 217.14513 26.349998L213.30138 26.349998L213.30138 24.053123L220.80138 24.053123L220.80138 21.084373L222.97325 21.084373Q224.7545 21.443748 223.41075 22.334373L223.41075 24.053123L230.98888 24.053123L230.98888 26.349998L227.2545 26.349998Q226.66075 29.787498 224.192 32.771873Q226.567 34.865623 231.42638 36.13125L230.442 38.771873Q226.02013 37.646873 222.45763 34.6ZM222.36388 30.959373Q224.34825 28.568748 224.77013 26.349998L219.66075 26.349998Q220.02013 28.412498 222.36388 30.959373ZM242.05138 28.271873L249.317 28.271873L248.48888 35.75625Q248.1295 38.928123 245.817 38.928123L242.36388 38.928123L241.78575 36.396873L245.66075 36.396873Q245.84825 36.396873 245.95763 35.584373L246.53575 30.568748L241.692 30.568748Q240.70763 35.4125 234.52013 39.31875L232.95763 36.959373Q239.2545 33.740623 239.6295 27.334373L239.692 26.349998L233.14513 26.349998L233.14513 23.818748L240.80138 23.818748L240.80138 20.693748L242.97325 20.693748Q244.7545 21.053123 243.41075 21.943748L243.41075 23.818748L251.30138 23.818748L251.30138 26.349998L242.27013 26.349998L242.05138 28.271873ZM266.59827 35.13125L265.00452 33.13125L266.95764 31.646873Q269.89514 34.85 271.50452 37.88125L269.1764 39.428123Q268.44202 37.94375 268.03577 37.38125L259.06702 38.271873Q258.9264 39.396873 257.95764 38.428123L257.16077 35.709373L259.87952 35.615623Q261.22327 33.271873 262.09827 31.037498L257.83264 31.037498L257.83264 28.740623L262.9889 28.740623L262.9889 26.349998L259.16077 26.349998L259.16077 24.053123L262.9889 24.053123L262.9889 20.928123L265.16077 20.928123Q266.94202 21.287498 265.59827 22.178123L265.59827 24.053123L269.81702 24.053123L269.81702 26.349998L265.59827 26.349998L265.59827 28.740623L271.3014 28.740623L271.3014 31.037498L265.06702 31.037498Q263.91077 33.553123 262.69202 35.475L266.59827 35.13125ZM258.44202 32.4125Q256.72327 36.35 255.61388 38.521873Q255.78575 39.896873 254.567 39.084373L252.66075 37.6625Q254.3795 35.490623 256.33264 31.240623L258.44202 32.4125ZM256.3014 30.928123Q254.84825 29.365623 252.97325 27.959373L254.567 26.037498Q256.87952 27.506248 257.97327 28.912498L256.3014 30.928123ZM257.1764 26.599998Q255.48888 25.084373 253.817 23.912498L255.41075 21.974998Q257.39514 23.193748 258.87952 24.678123L257.1764 26.599998ZM285.5826 36.6625Q281.73886 36.6625 278.942 33.959373L280.4576 31.974998Q282.7701 34.209373 285.5826 34.13125L290.28574 34.13125L290.28574 36.6625L285.5826 36.6625ZM274.03574 38.178123Q273.7701 33.69375 273.7701 30.787498Q273.7701 27.240623 274.7076 21.928123L276.67636 22.428123Q278.48886 22.756248 277.05136 23.756248Q276.30136 28.084373 276.30136 30.787498Q276.30136 33.81875 276.6451 37.959373L274.03574 38.178123ZM289.2701 26.599998Q285.5201 26.506248 279.7076 27.099998L279.7076 24.631248Q285.72324 24.053123 289.2701 24.146873L289.2701 26.599998ZM308.47324 34.115623Q305.6451 30.943748 302.41074 29.021873L304.0045 26.990623Q307.41074 28.740623 310.4576 32.0375L308.47324 34.115623ZM292.692 22.178123L309.91074 22.178123L309.91074 24.709373L303.0045 24.709373Q302.84824 25.240623 302.41074 26.053123L302.41074 39.00625L299.80136 39.00625L299.80136 29.771873Q297.80136 32.2875 293.3326 34.271873L291.80136 31.771873Q297.8795 29.224998 300.09824 24.709373L292.692 24.709373L292.692 22.178123ZM311.86386 37.35Q313.67636 34.428123 315.0201 31.193748L317.11386 32.584373Q315.72324 35.959373 314.47324 38.271873Q314.8951 40.19375 313.5201 38.81875L311.86386 37.35ZM315.2076 30.474998Q313.78574 29.146873 312.05136 28.006248L313.5201 25.959373Q315.3795 26.943748 316.66074 28.240623L315.2076 30.474998ZM314.2545 21.381248Q316.0045 22.256248 317.1451 23.599998L315.4576 25.615623Q314.317 24.381248 312.55136 23.303123L314.2545 21.381248ZM321.09824 31.318748Q322.7701 31.521873 321.55136 32.396873L321.55136 34.209373L322.1451 34.209373L322.1451 30.959373L319.2076 30.959373L319.2076 39.1625L316.8326 39.1625L316.8326 28.896873L322.1451 28.896873L322.1451 28.068748L317.4576 28.068748L317.4576 26.006248L319.8795 26.006248L319.8795 24.865623L316.36386 24.865623L316.36386 22.803123L319.8795 22.803123L319.8795 20.771873L321.567 20.771873Q323.23886 20.974998 322.0201 21.849998L322.0201 22.803123L324.41074 22.803123L324.41074 20.771873L326.09824 20.771873Q327.7701 20.974998 326.55136 21.849998L326.55136 22.803123L330.3795 22.803123L330.3795 24.865623L326.55136 24.865623L326.55136 26.006248L329.05136 26.006248L329.05136 28.068748L324.28574 28.068748L324.28574 28.896873L329.8326 28.896873L329.8326 37.35Q329.8326 39.00625 328.17636 39.00625L326.42636 39.00625L326.067 36.709373L327.55136 36.709373Q327.55136 36.803123 327.4576 36.803123L327.4576 30.959373L324.28574 30.959373L324.28574 34.209373L324.9576 34.209373L324.9576 31.318748L326.6451 31.318748Q328.317 31.521873 327.09824 32.396873L327.09824 36.584373L324.9576 36.584373L325.05136 36.178123L321.55136 36.271873L321.55136 37.209373L319.41074 37.209373L319.41074 31.318748L321.09824 31.318748ZM324.41074 24.865623L322.0201 24.865623L322.0201 26.006248L324.41074 26.006248L324.41074 24.865623ZM346.8326 33.4125Q348.66074 35.146873 350.1451 37.75625L347.5201 39.06875Q346.2701 36.396873 344.73886 34.584373L346.8326 33.4125ZM343.34824 33.50625Q344.8951 36.0375 345.17636 38.521873L342.442 39.178123Q342.0826 36.678123 341.067 34.303123L343.34824 33.50625ZM332.2076 37.896873Q333.92636 36.19375 334.8951 33.5375L337.23886 34.44375Q336.59824 37.240623 334.66074 39.35L332.2076 37.896873ZM339.92636 34.0375Q340.692 35.865623 340.5201 38.990623L337.8326 39.1Q337.92636 36.053123 337.5201 34.146873L339.92636 34.0375ZM345.34824 31.084373L345.34824 28.849998L337.41074 28.849998L337.41074 31.084373L345.34824 31.084373ZM341.6451 20.771873Q343.317 20.974998 342.09824 21.849998L342.09824 22.959373L348.66074 22.959373L348.66074 25.256248L342.09824 25.256248L342.09824 26.553123L347.9576 26.553123L347.9576 33.85L345.34824 33.85L345.34824 33.38125L337.41074 33.38125L337.41074 34.00625L334.80136 34.00625L334.80136 26.553123L339.48886 26.553123L339.48886 20.771873L341.6451 20.771873ZM366.0201 27.584373Q366.16074 30.162498 366.0201 32.85Q368.1295 33.63125 370.67636 35.44375L369.30136 37.63125Q367.3326 36.13125 366.0045 35.490623Q366.0045 36.428123 365.0201 37.396873Q363.97324 38.459373 362.0045 38.459373Q360.03574 38.459373 358.98886 37.396873Q358.0826 36.50625 358.0826 35.084373Q358.0826 33.81875 358.8326 33.084373Q359.8795 32.021873 361.92636 32.021873Q362.98886 32.021873 363.5826 32.1625Q363.7076 30.006248 363.5826 27.709373L357.7701 28.099998L357.7701 25.631248L363.3795 25.318748Q363.317 23.553123 363.0201 21.396873L365.16074 21.396873Q367.05136 21.740623 365.7076 22.631248Q365.7701 24.053123 365.8326 25.209373L370.067 24.974998L370.067 27.428123L366.0201 27.584373ZM353.4576 38.13125Q353.0826 35.50625 353.0826 32.584373Q353.0826 26.209373 354.1295 21.959373L356.2701 22.349998Q357.66074 22.943748 356.3951 23.568748Q355.61386 26.084373 355.61386 32.584373Q355.61386 35.50625 356.0826 37.678123L353.4576 38.13125ZM363.567 34.5375Q362.567 34.240623 361.92636 34.240623Q361.0045 34.240623 360.6451 34.584373Q360.3795 34.865623 360.3795 35.084373Q360.3795 35.5375 360.567 35.740623Q361.0045 36.1625 361.92636 36.1625Q362.8326 36.1625 363.17636 35.75625Q363.61386 35.25625 363.567 34.5375Z" fill-rule="nonzero"/><path fill="#757575" d="M21.863876 60.928123Q25.551376 60.56875 26.551376 59.584373Q27.285751 58.834373 27.285751 57.44375Q27.285751 55.896873 26.551376 55.146873Q25.629501 54.240623 24.317001 54.13125Q23.129501 57.959373 21.692001 59.475L22.176376 60.5375L20.035751 62.13125L19.660751 61.303123Q17.926376 62.771873 16.363876 62.771873Q15.2545 62.771873 14.363875 61.865623Q13.3795 60.896873 13.3795 59.240623Q13.3795 56.4125 15.301375 54.50625Q16.426376 53.365623 17.457626 52.81875L17.582626 50.521873L14.3795 50.678123L13.926375 48.146873L17.692001 48.06875Q17.754501 46.63125 17.942001 44.615623L19.848251 44.615623Q21.551376 44.959373 20.348251 45.865623Q20.207626 47.084373 20.160751 47.94375Q23.426376 47.740623 26.457626 47.209373L26.926376 49.75625Q23.192001 50.19375 20.020126 50.334373L19.926376 51.85Q20.504501 51.646873 22.192001 51.584373L22.442001 50.25625L24.332626 50.553123Q25.832626 50.896873 24.785751 51.7875L24.801376 51.771873Q26.942001 51.975 28.363876 53.4125Q29.973251 55.00625 29.973251 57.521873Q29.973251 59.88125 28.520126 61.31875Q27.020126 62.81875 23.348251 63.44375L21.863876 60.928123ZM17.723251 55.35Q17.692001 55.35 16.957626 56.084373Q15.676375 57.38125 15.676375 59.475Q15.676375 59.928123 16.020126 60.2875Q16.067001 60.31875 16.363876 60.31875Q17.363876 60.31875 18.551376 59.13125Q17.832626 56.975 17.723251 55.35ZM20.067001 54.209373Q20.129501 55.88125 20.535751 56.990623Q21.301376 55.94375 21.723251 53.94375Q20.879501 53.94375 20.067001 54.209373ZM41.59825 53.928123Q41.59825 48.63125 41.238876 45.31875L43.270126 45.31875Q45.176376 45.490623 43.832626 46.5375Q44.051376 48.834373 44.051376 54.00625Q44.051376 60.115623 38.020126 63.334373L36.082626 61.38125Q41.59825 58.75625 41.59825 53.928123ZM36.942 56.81875Q36.1295 57.459373 35.1295 57.459373Q34.41075 57.459373 33.832626 56.865623Q33.16075 56.209373 33.16075 51.896873Q33.16075 48.740623 33.520126 45.7875L35.676376 45.7875Q37.238876 46.38125 35.957626 47.021873Q35.613876 48.6625 35.613876 51.896873Q35.520126 54.94375 35.520126 54.85Q35.613876 54.85 35.8795 54.63125Q36.395126 54.19375 37.895126 52.225L39.66075 53.975Q38.067 55.94375 36.942 56.81875ZM56.707626 56.646873Q59.645126 57.2875 63.09825 58.975L61.84825 61.459373Q58.645126 59.459373 56.707626 58.975Q56.707626 60.6625 55.567 61.7875Q54.520126 62.85 52.238876 62.85Q50.426376 62.85 49.301376 61.709373Q48.47325 60.896873 48.47325 59.475Q48.47325 58.209373 49.3795 57.31875Q50.5045 56.178123 52.78575 56.178123Q53.426376 56.178123 54.332626 56.225L54.332626 54.6625L48.395126 54.81875L48.395126 52.44375L54.332626 52.2875L54.332626 50.365623L46.988876 50.6L46.988876 48.225L54.332626 47.990623L54.332626 44.928123L56.176376 44.928123Q58.067 45.271873 56.707626 46.178123L56.707626 47.803123L63.113876 47.56875L63.113876 49.94375L56.707626 50.178123L56.707626 52.178123L61.78575 52.021873L61.78575 54.396873L56.707626 54.553123L56.707626 56.646873ZM54.270126 58.490623Q53.770126 58.396873 52.942 58.396873Q51.551376 58.396873 51.03575 58.896873Q50.770126 59.178123 50.770126 59.63125Q50.770126 59.928123 51.03575 60.209373Q51.47325 60.63125 52.47325 60.63125Q53.238876 60.63125 53.7545 60.13125Q54.317 59.553123 54.270126 58.490623ZM73.42638 57.834373Q73.0045 58.084373 71.8795 58.084373Q70.3795 58.084373 69.567 57.25625Q68.5045 56.209373 68.5045 54.865623Q68.5045 53.44375 69.567 52.396873Q70.61388 51.334373 72.192 51.334373Q73.17638 51.334373 73.58263 51.44375L73.58263 50.69375L65.067 51.225L64.59825 48.771873L73.58263 48.38125L73.58263 44.69375L75.42638 44.69375Q77.317 45.0375 75.95763 45.94375L75.95763 48.25625L82.59825 47.7875L82.59825 50.25625L75.95763 50.56875L75.95763 53.1Q76.27013 54.50625 76.27013 56.271873Q76.192 60.490623 71.39513 63.475L69.192 61.85Q73.42638 59.396873 73.42638 57.834373ZM72.34825 53.475Q71.66075 53.475 71.22325 53.896873Q70.8795 54.25625 70.8795 54.865623Q70.8795 55.396873 71.14513 55.678123Q71.42638 55.94375 72.11388 55.94375Q72.80138 55.94375 73.23888 55.521873Q73.58263 55.1625 73.58263 54.63125Q73.58263 54.1 73.23888 53.740623Q72.95763 53.475 72.34825 53.475ZM83.92638 61.4125Q86.442 57.50625 87.95763 52.5375Q86.86388 52.69375 84.80138 52.88125L84.58263 50.31875Q86.41075 50.31875 88.61388 50.115623Q89.23888 47.975 89.78575 45.0375L91.8795 45.740623Q93.86388 46.56875 91.98888 47.146873Q91.58263 48.56875 91.27013 49.834373Q91.6295 49.771873 92.67638 49.771873Q93.942 49.771873 94.59825 50.44375Q95.66075 51.490623 95.66075 54.94375Q95.66075 59.646873 94.20763 61.084373Q93.317 61.990623 92.1295 61.990623Q90.45763 61.990623 88.64513 59.88125L90.1295 57.834373Q91.59825 59.303123 92.05138 59.303123Q92.27013 59.303123 92.47325 59.115623Q93.20763 58.365623 93.20763 54.63125Q93.20763 52.615623 92.86388 52.25625Q92.73888 52.146873 92.20763 52.146873Q91.53575 52.146873 90.567 52.271873Q88.98888 57.834373 86.53575 62.31875L83.92638 61.4125ZM99.98888 57.834373Q98.48888 52.428123 95.55138 49.6625L97.64513 48.1625Q101.16075 51.771873 102.45763 56.834373L99.98888 57.834373ZM106.8795 51.81875Q106.8795 50.94375 107.317 50.06875Q107.66075 49.396873 108.2545 48.803123Q109.92638 47.115623 113.3795 47.115623Q116.59825 47.115623 117.95763 48.490623Q119.09825 49.615623 119.09825 50.88125Q119.09825 51.94375 118.55138 52.75625Q117.942 53.63125 116.83263 54.146873Q115.317 54.81875 114.64513 55.334373Q114.41075 55.521873 114.41075 55.88125L114.41075 56.9125L111.8795 56.9125L111.8795 55.334373Q111.8795 54.00625 112.86388 53.428123Q114.59825 52.396873 115.61388 51.928123Q116.2545 51.584373 116.2545 50.959373Q116.2545 50.50625 115.91075 50.146873Q115.317 49.56875 113.3795 49.56875Q111.28575 49.56875 110.45763 50.38125Q109.72325 51.13125 109.72325 51.81875L109.72325 52.615623L106.8795 52.615623L106.8795 51.81875ZM111.64513 58.2875L114.64513 58.2875L114.64513 61.365623L111.64513 61.365623L111.64513 58.2875Z" fill-rule="nonzero"/></svg>